if (_typeface_js && _typeface_js.loadFace) _typeface_js.loadFace({"glyphs":{"S":{"x_min":68.0625,"x_max":647.890625,"ha":724,"o":"m 647 256 b 194 752 647 558 194 520 b 352 905 194 848 265 905 b 549 697 475 905 532 815 l 596 697 l 600 905 b 364 950 540 926 443 950 b 83 693 205 950 83 856 b 534 200 83 415 534 438 b 338 27 534 93 446 27 b 115 273 190 27 148 133 l 68 273 l 80 38 b 323 -19 155 5 242 -19 b 647 256 518 -19 647 100 "},"¦":{"x_min":167.421875,"x_max":240.921875,"ha":417,"o":"m 240 562 l 240 1076 l 167 1076 l 167 562 l 240 562 m 240 -326 l 240 187 l 167 187 l 167 -326 l 240 -326 "},"/":{"x_min":27,"x_max":702,"ha":744,"o":"m 702 1076 l 623 1076 l 27 -326 l 105 -326 l 702 1076 "},"y":{"x_min":20.203125,"x_max":734.90625,"ha":771,"o":"m 334 630 l 334 658 l 20 658 l 20 630 l 108 597 l 356 8 b 188 -230 282 -162 248 -230 b 74 -197 139 -230 92 -206 b 36 -275 56 -213 36 -245 b 122 -326 36 -315 82 -326 b 357 -101 229 -326 303 -236 l 642 593 l 734 630 l 734 658 l 481 658 l 481 630 l 586 593 l 413 152 l 232 597 l 334 630 "},"≈":{"x_min":68,"x_max":680.5,"ha":764,"o":"m 613 643 b 523 545 598 584 577 545 b 223 631 445 545 315 631 b 68 472 142 631 91 569 l 134 454 b 224 551 149 512 171 551 b 525 465 303 551 432 465 b 680 625 605 465 657 527 l 613 643 m 613 379 b 523 281 598 320 577 281 b 223 368 445 281 315 368 b 68 208 142 368 91 305 l 134 190 b 224 287 149 248 171 287 b 525 201 303 287 432 201 b 680 361 605 201 657 263 l 613 379 "},"Ž":{"x_min":47.890625,"x_max":776.1875,"ha":861,"o":"m 776 278 l 744 278 l 656 49 l 208 49 l 751 902 l 751 930 l 86 930 l 86 689 l 121 689 l 186 878 l 589 878 l 47 27 l 47 0 l 763 0 l 776 278 m 435 1017 b 587 1214 467 1066 548 1169 l 558 1237 l 410 1138 l 261 1237 l 233 1214 b 384 1017 271 1169 352 1066 l 435 1017 "},"Á":{"x_min":33.984375,"x_max":969.03125,"ha":1031,"o":"m 725 63 l 585 30 l 585 0 l 969 0 l 969 30 l 854 60 l 525 949 l 485 949 l 146 63 l 33 28 l 33 0 l 347 0 l 347 28 l 213 62 l 313 333 l 624 333 l 725 63 m 469 753 l 605 384 l 332 384 l 469 753 m 439 1008 b 702 1144 532 1031 702 1101 b 626 1211 702 1169 676 1188 b 415 1035 587 1166 485 1085 l 439 1008 "},"g":{"x_min":27.546875,"x_max":638.1875,"ha":693,"o":"m 67 456 b 189 259 67 359 115 291 b 64 90 133 229 64 166 b 141 -7 64 37 95 5 b 27 -173 98 -30 27 -90 b 276 -326 27 -279 143 -326 b 638 -86 469 -326 638 -239 b 412 94 638 31 562 94 l 262 94 b 160 151 194 94 160 106 b 219 248 160 188 186 227 b 306 235 246 240 275 235 b 546 456 439 235 546 313 b 493 604 546 517 526 567 b 631 684 568 605 631 627 b 541 754 631 730 601 754 l 521 754 b 527 690 525 731 527 706 b 466 629 527 654 514 633 b 306 677 423 660 367 677 b 67 456 173 677 67 599 m 319 -283 b 129 -132 197 -283 129 -232 b 169 -20 129 -80 151 -39 l 428 -20 b 560 -122 511 -20 560 -58 b 319 -283 560 -209 443 -283 m 179 465 b 303 641 179 579 234 641 b 434 448 374 641 434 573 b 309 272 434 334 378 272 b 179 465 218 272 179 365 "},"²":{"x_min":27.21875,"x_max":488.640625,"ha":556,"o":"m 428 563 l 178 563 b 454 872 379 672 454 773 b 249 1037 454 979 377 1037 b 47 909 136 1037 47 984 b 134 862 47 866 95 862 b 238 993 136 931 167 993 b 344 872 304 993 344 955 b 27 494 344 740 205 622 l 27 468 l 479 468 l 488 647 l 461 647 l 428 563 "},"–":{"x_min":47.640625,"x_max":769.03125,"ha":833,"o":"m 769 309 l 769 387 l 47 387 l 47 309 l 769 309 "},"ë":{"x_min":68.359375,"x_max":619.984375,"ha":703,"o":"m 345 -19 b 617 97 443 -19 547 27 l 598 129 b 398 54 531 80 469 54 b 184 350 268 54 184 163 b 185 393 184 365 184 379 l 617 393 b 619 437 618 401 619 419 b 375 677 619 593 524 677 b 68 301 192 677 68 525 b 345 -19 68 98 182 -19 m 366 638 b 493 476 451 638 493 575 b 490 434 493 462 492 450 l 189 434 b 366 638 212 576 291 638 m 237 818 b 313 893 277 818 313 851 b 237 968 313 934 277 968 b 160 893 194 968 160 934 b 237 818 160 851 194 818 m 519 818 b 595 893 560 818 595 851 b 519 968 595 934 560 968 b 443 893 477 968 443 934 b 519 818 443 851 477 818 "},"ƒ":{"x_min":26.75,"x_max":710.03125,"ha":764,"o":"m 176 516 l 312 516 l 264 48 b 184 -137 251 -87 239 -137 b 67 -86 143 -137 92 -106 b 26 -172 48 -102 26 -137 b 88 -211 26 -201 55 -211 b 382 108 240 -211 360 -98 l 424 516 l 633 516 l 633 565 l 429 565 l 435 618 b 531 830 450 756 460 830 b 671 791 591 830 641 809 b 710 869 690 805 710 837 b 662 916 710 897 695 916 b 322 602 522 916 345 819 l 318 565 l 176 565 l 176 516 "},"Î":{"x_min":54.671875,"x_max":439.96875,"ha":504,"o":"m 310 864 l 439 899 l 439 930 l 54 930 l 54 899 l 184 864 l 184 64 l 54 30 l 54 0 l 439 0 l 439 30 l 310 64 l 310 864 m 222 1227 b 71 1030 190 1178 109 1075 l 99 1008 l 248 1106 l 396 1008 l 425 1030 b 273 1227 386 1075 305 1178 l 222 1227 "},"e":{"x_min":68.375,"x_max":620.984375,"ha":703,"o":"m 346 -19 b 618 97 444 -19 548 27 l 599 129 b 399 54 532 80 469 54 b 184 350 268 54 184 163 b 185 393 184 365 184 379 l 618 393 b 620 437 619 401 620 419 b 375 677 620 593 525 677 b 68 301 192 677 68 525 b 346 -19 68 98 182 -19 m 366 638 b 494 476 452 638 494 575 b 491 434 494 462 493 450 l 189 434 b 366 638 212 576 291 638 "},"Ã":{"x_min":33.984375,"x_max":969.03125,"ha":1031,"o":"m 725 63 l 585 30 l 585 0 l 969 0 l 969 30 l 854 61 l 525 950 l 486 950 l 147 63 l 33 29 l 33 0 l 347 0 l 347 29 l 213 62 l 313 333 l 624 333 l 725 63 m 469 754 l 605 384 l 332 384 l 469 754 m 681 1223 b 617 1140 665 1175 650 1140 b 429 1205 574 1140 480 1205 b 311 1034 363 1205 331 1151 l 347 1025 b 411 1108 363 1073 378 1108 b 600 1043 454 1108 548 1043 b 718 1213 665 1043 698 1097 l 681 1223 "},"J":{"x_min":47.640625,"x_max":449.171875,"ha":507,"o":"m 193 191 b 47 -95 193 18 160 -30 l 65 -131 b 319 254 255 -69 319 59 l 319 865 l 449 900 l 449 930 l 63 930 l 63 900 l 193 865 l 193 191 "},"»":{"x_min":88,"x_max":675,"ha":758,"o":"m 88 83 l 116 56 l 402 342 l 116 628 l 88 600 l 270 342 l 88 83 m 360 83 l 388 56 l 675 342 l 388 628 l 360 600 l 542 342 l 360 83 "},"∆":{"x_min":82.03125,"x_max":853.78125,"ha":961,"o":"m 853 0 l 853 30 l 493 950 l 453 950 l 82 29 l 82 0 l 853 0 m 156 56 l 438 761 l 709 56 l 156 56 "},"©":{"x_min":74.859375,"x_max":1027.640625,"ha":1125,"o":"m 1027 466 b 551 950 1027 734 813 950 b 74 466 288 950 74 734 b 551 -19 74 195 288 -19 b 1027 466 813 -19 1027 195 m 978 466 b 551 29 978 223 788 29 b 123 466 317 29 123 223 b 551 902 123 706 317 902 b 978 466 788 902 978 706 m 741 365 l 706 365 b 571 233 692 284 643 233 b 404 463 458 233 404 340 b 552 694 404 594 454 694 b 709 562 628 694 681 652 l 740 562 l 736 700 b 558 733 699 712 627 733 b 300 456 421 733 300 643 b 567 193 300 295 413 193 b 732 229 631 193 690 212 l 741 365 "},"˘":{"x_min":88.46875,"x_max":455.96875,"ha":556,"o":"m 272 787 b 455 998 389 787 455 872 l 423 1008 b 272 873 402 919 348 873 b 121 1008 196 873 141 919 l 88 998 b 272 787 88 872 155 787 "},"≥":{"x_min":68.03125,"x_max":680.890625,"ha":764,"o":"m 680 0 l 680 72 l 68 72 l 68 0 l 680 0 m 646 498 l 148 769 l 111 701 l 552 463 l 111 226 l 148 158 l 646 429 l 646 498 "},"ò":{"x_min":68.3125,"x_max":697.140625,"ha":781,"o":"m 384 19 b 198 329 268 19 198 107 b 381 639 198 551 265 639 b 566 331 497 639 566 553 b 384 19 566 108 499 19 m 381 -19 b 697 335 590 -19 697 139 b 384 678 697 517 593 678 b 68 325 174 678 68 521 b 381 -19 68 143 171 -19 m 478 793 b 337 1031 427 864 358 975 b 241 986 272 1025 241 1012 b 445 775 241 944 378 821 l 478 793 "},"^":{"x_min":75,"x_max":674,"ha":764,"o":"m 340 916 l 75 408 l 141 371 l 374 821 l 607 371 l 674 408 l 408 916 l 340 916 "},"«":{"x_min":68,"x_max":655,"ha":758,"o":"m 472 342 l 655 600 l 626 628 l 340 342 l 626 56 l 655 83 l 472 342 m 200 342 l 382 600 l 354 628 l 68 342 l 354 56 l 382 83 l 200 342 "},"D":{"x_min":54.4375,"x_max":955.5,"ha":1051,"o":"m 54 0 l 451 0 b 955 488 770 0 955 195 b 468 930 955 752 786 930 l 54 930 l 54 900 l 183 865 l 183 65 l 54 30 l 54 0 m 820 477 b 449 50 820 176 666 50 l 310 50 l 310 880 l 451 880 b 820 477 726 880 820 695 "},"ł":{"x_min":47.640625,"x_max":364.78125,"ha":414,"o":"m 47 434 l 147 475 l 147 58 l 47 27 l 47 0 l 357 0 l 357 27 l 258 58 l 258 520 l 364 563 l 364 626 l 258 583 l 258 1008 l 47 955 l 47 922 l 147 909 l 147 537 l 47 497 l 47 434 "},"ÿ":{"x_min":20.203125,"x_max":734.90625,"ha":771,"o":"m 334 630 l 334 658 l 20 658 l 20 630 l 108 597 l 356 8 b 188 -230 282 -162 248 -230 b 74 -197 139 -230 92 -206 b 36 -275 56 -213 36 -245 b 122 -326 36 -315 82 -326 b 357 -101 229 -326 303 -236 l 642 593 l 734 630 l 734 658 l 481 658 l 481 630 l 586 593 l 413 152 l 232 597 l 334 630 m 267 818 b 344 893 308 818 344 851 b 267 968 344 934 308 968 b 191 893 225 968 191 934 b 267 818 191 851 225 818 m 551 818 b 627 893 591 818 627 851 b 551 968 627 934 591 968 b 474 893 508 968 474 934 b 551 818 474 851 508 818 "},"Ł":{"x_min":54.4375,"x_max":748.609375,"ha":819,"o":"m 310 865 l 449 900 l 449 930 l 54 930 l 54 900 l 183 865 l 183 463 l 54 429 l 54 366 l 183 401 l 183 65 l 54 30 l 54 0 l 736 0 l 748 279 l 717 279 l 630 51 l 310 51 l 310 436 l 488 484 l 488 547 l 310 498 l 310 865 "},"í":{"x_min":50.359375,"x_max":360.6875,"ha":403,"o":"m 360 0 l 360 28 l 261 58 l 261 678 l 50 625 l 50 591 l 149 579 l 149 58 l 50 28 l 50 0 l 360 0 m 144 775 b 348 986 210 820 348 944 b 251 1031 348 1012 317 1025 b 111 793 231 975 161 864 l 144 775 "},"ˆ":{"x_min":101,"x_max":444,"ha":556,"o":"m 246 1027 b 101 793 215 968 140 847 l 133 775 l 272 907 l 411 775 l 444 793 b 298 1027 404 847 329 968 l 246 1027 "},"w":{"x_min":14.015625,"x_max":1073,"ha":1108,"o":"m 551 658 l 385 162 l 226 597 l 314 626 l 314 658 l 14 658 l 14 630 l 102 597 l 332 0 l 374 0 l 538 455 l 697 0 l 739 0 l 980 593 l 1073 630 l 1073 658 l 819 658 l 819 630 l 926 594 l 757 158 l 592 658 l 551 658 "},"$":{"x_min":89.828125,"x_max":669.671875,"ha":764,"o":"m 352 -158 l 405 -158 l 405 -15 b 669 247 566 5 669 111 b 436 519 669 362 598 441 l 411 531 l 411 869 b 571 672 507 854 555 773 l 617 672 l 622 873 b 411 915 567 890 484 911 l 411 1062 l 357 1062 l 357 915 b 104 668 212 905 104 816 b 352 400 104 550 194 475 l 352 26 b 137 263 210 29 168 130 l 89 263 l 102 37 b 345 -19 176 5 264 -19 l 352 -19 l 352 -158 m 556 193 b 405 29 556 102 491 44 l 405 373 b 556 193 504 322 556 275 m 216 726 b 357 872 216 812 277 866 l 357 558 b 216 726 259 608 216 647 "},"∫":{"x_min":13.609375,"x_max":423.3125,"ha":474,"o":"m 298 18 b 230 833 298 252 230 684 b 280 923 230 880 232 923 b 383 883 308 923 356 904 b 423 961 405 897 423 930 b 362 1008 423 993 401 1008 b 138 663 209 1008 138 859 b 206 -151 138 429 206 -2 b 156 -241 206 -198 204 -241 b 53 -201 127 -241 80 -222 b 13 -279 31 -215 13 -248 b 72 -326 13 -311 32 -326 b 298 18 224 -326 298 -177 "},"\\":{"x_min":26.890625,"x_max":702,"ha":744,"o":"m 623 -326 l 702 -326 l 105 1076 l 26 1076 l 623 -326 "},"Ì":{"x_min":54.640625,"x_max":439.828125,"ha":504,"o":"m 310 865 l 439 899 l 439 930 l 54 930 l 54 899 l 183 865 l 183 65 l 54 30 l 54 0 l 439 0 l 439 30 l 310 65 l 310 865 m 350 1036 b 139 1211 279 1086 177 1166 b 62 1144 88 1188 62 1169 b 325 1008 62 1101 232 1031 l 350 1036 "},"µ":{"x_min":20.421875,"x_max":722.75,"ha":779,"o":"m 518 579 l 518 137 b 366 62 476 94 419 62 b 231 217 285 62 231 111 l 231 678 l 20 625 l 20 591 l 119 579 l 119 -23 b 242 -325 119 -230 164 -325 b 311 -232 289 -325 311 -282 b 164 -82 216 -214 164 -188 l 164 40 b 302 -19 186 10 235 -19 b 518 85 381 -19 468 32 l 518 -19 l 722 33 l 722 67 l 630 79 l 630 678 l 419 625 l 419 591 l 518 579 "},"Ç":{"x_min":74.859375,"x_max":847.96875,"ha":949,"o":"m 646 -191 b 500 -88 646 -123 581 -88 l 556 -19 b 830 45 665 -16 758 15 l 847 256 l 796 256 b 552 27 771 111 683 27 b 209 468 329 27 209 200 b 519 904 209 733 330 904 b 798 677 657 904 755 833 l 845 677 l 837 890 b 528 950 779 912 631 950 b 74 454 265 950 74 777 b 499 -16 74 184 238 1 l 411 -134 l 420 -159 b 549 -227 492 -159 549 -180 b 479 -280 549 -261 521 -280 b 397 -259 449 -280 416 -270 l 377 -298 b 484 -326 406 -315 441 -326 b 646 -191 571 -326 646 -272 "},"’":{"x_min":97.921875,"x_max":261.25,"ha":353,"o":"m 176 950 b 97 870 134 950 97 919 b 183 793 97 815 145 793 l 200 793 b 97 645 193 740 146 679 l 123 609 b 261 852 204 661 261 761 b 176 950 261 915 224 950 "},"-":{"x_min":47.640625,"x_max":428.75,"ha":486,"o":"m 428 309 l 428 387 l 47 387 l 47 309 l 428 309 "},"Q":{"x_min":74.859375,"x_max":962.3125,"ha":1058,"o":"m 816 -325 b 959 -295 856 -325 911 -313 l 959 -263 l 910 -263 b 630 -6 820 -263 680 -113 b 962 463 849 41 962 230 b 524 950 962 740 828 950 b 74 468 227 950 74 738 b 481 -18 74 201 198 -4 b 816 -325 555 -148 691 -325 m 532 27 b 209 468 328 27 209 175 b 504 902 209 720 318 902 b 827 463 709 902 827 756 b 532 27 827 211 718 27 "},"M":{"x_min":47.640625,"x_max":1161.03125,"ha":1240,"o":"m 1031 65 l 1031 865 l 1161 900 l 1161 930 l 867 930 l 605 184 l 322 930 l 47 930 l 47 900 l 176 865 l 176 62 l 47 30 l 47 0 l 367 0 l 367 30 l 238 62 l 238 802 l 549 -12 l 597 -12 l 905 847 l 905 65 l 775 30 l 775 0 l 1161 0 l 1161 30 l 1031 65 "},"C":{"x_min":74.859375,"x_max":847.96875,"ha":949,"o":"m 847 256 l 796 256 b 552 27 771 111 683 27 b 209 468 329 27 209 200 b 519 904 209 733 330 904 b 798 677 657 904 755 833 l 845 677 l 837 890 b 528 950 779 912 631 950 b 74 454 265 950 74 777 b 545 -19 74 169 258 -19 b 830 45 660 -19 755 13 l 847 256 "},"œ":{"x_min":68.234375,"x_max":1133.984375,"ha":1226,"o":"m 381 -19 b 630 101 495 -19 578 27 b 859 -19 679 22 759 -19 b 1131 97 957 -19 1061 27 l 1112 129 b 912 54 1045 80 982 54 b 697 350 781 54 697 163 b 698 393 697 365 697 379 l 1131 393 b 1133 437 1132 401 1133 419 b 888 677 1133 593 1038 677 b 642 541 784 677 697 626 b 384 677 592 622 505 677 b 68 325 174 677 68 520 b 381 -19 68 143 171 -19 m 384 19 b 198 329 268 19 198 106 b 381 638 198 551 265 638 b 566 330 496 638 566 552 b 384 19 566 108 499 19 m 879 638 b 1007 476 965 638 1007 575 b 1004 434 1007 462 1006 450 l 702 434 b 879 638 725 576 804 638 "},"!":{"x_min":136.109375,"x_max":302.171875,"ha":447,"o":"m 238 272 b 294 869 253 411 294 808 b 219 950 294 926 264 950 b 144 869 174 950 144 926 b 200 272 144 808 185 411 l 238 272 m 302 65 b 219 150 302 111 264 150 b 136 65 174 150 136 111 b 219 -19 136 19 174 -19 b 302 65 264 -19 302 19 "},"ç":{"x_min":68.0625,"x_max":609.78125,"ha":678,"o":"m 231 -134 l 240 -159 b 370 -227 313 -159 370 -180 b 299 -280 370 -261 341 -280 b 217 -259 269 -280 236 -270 l 197 -298 b 304 -326 227 -315 261 -326 b 466 -191 392 -326 466 -272 b 321 -88 466 -123 401 -88 l 378 -16 b 609 101 461 -6 547 41 l 590 133 b 397 56 528 86 464 56 b 183 340 265 56 183 156 b 377 638 183 526 268 638 b 495 473 454 638 492 572 b 601 541 560 473 601 495 b 392 677 601 618 510 677 b 68 280 167 677 68 466 b 319 -18 68 102 171 -5 l 231 -134 "},"È":{"x_min":54.640625,"x_max":748.8125,"ha":840,"o":"m 54 0 l 736 0 l 748 279 l 717 279 l 630 51 l 310 51 l 310 462 l 502 462 l 550 324 l 580 324 l 580 649 l 550 649 l 502 512 l 310 512 l 310 879 l 626 879 l 691 690 l 727 690 l 727 930 l 54 930 l 54 899 l 183 865 l 183 65 l 54 30 l 54 0 m 546 1036 b 335 1211 475 1086 373 1166 b 258 1144 284 1188 258 1169 b 521 1008 258 1101 428 1031 l 546 1036 "},"ﬁ":{"x_min":54.4375,"x_max":835.71875,"ha":888,"o":"m 265 58 l 265 604 l 428 604 l 428 658 l 265 658 b 258 831 262 707 258 805 b 332 923 258 901 287 923 b 450 883 364 923 419 905 b 488 956 469 895 488 927 b 442 1008 488 993 469 1008 b 153 712 307 1008 153 897 l 153 658 l 54 658 l 54 604 l 153 604 l 153 58 l 54 28 l 54 0 l 386 0 l 386 28 l 265 58 m 835 0 l 835 28 l 736 58 l 736 678 l 525 625 l 525 591 l 624 579 l 624 58 l 525 28 l 525 0 l 835 0 m 681 813 b 762 893 724 813 762 848 b 681 972 762 936 724 972 b 601 893 637 972 601 936 b 681 813 601 848 637 813 "},"{":{"x_min":68.0625,"x_max":549.890625,"ha":644,"o":"m 68 423 b 209 197 208 393 209 329 l 209 12 b 491 -218 209 -215 323 -218 l 549 -218 l 549 -179 l 491 -179 b 336 -12 394 -179 336 -170 l 336 154 b 163 440 336 337 300 404 b 336 726 300 476 336 543 l 336 893 b 491 1059 336 1051 394 1059 l 549 1059 l 549 1098 l 491 1098 b 209 868 323 1098 209 1095 l 209 683 b 68 456 209 551 208 487 l 68 423 "},"X":{"x_min":41.0625,"x_max":955.90625,"ha":1017,"o":"m 811 862 l 927 900 l 927 930 l 603 930 l 603 901 l 729 865 l 518 548 l 311 866 l 445 901 l 445 930 l 58 930 l 58 900 l 170 862 l 441 454 l 154 63 l 41 29 l 41 0 l 371 0 l 371 30 l 243 68 l 476 400 l 697 61 l 569 30 l 569 0 l 955 0 l 955 30 l 845 61 l 554 494 l 811 862 "},"ô":{"x_min":68.078125,"x_max":696.921875,"ha":781,"o":"m 383 19 b 198 329 268 19 198 106 b 381 638 198 551 265 638 b 566 330 496 638 566 552 b 383 19 566 108 499 19 m 381 -19 b 696 334 590 -19 696 138 b 383 677 696 516 593 677 b 68 325 174 677 68 520 b 381 -19 68 143 171 -19 m 356 1027 b 211 793 325 968 250 847 l 243 775 l 382 907 l 521 775 l 554 793 b 408 1027 514 847 439 968 l 356 1027 "},"¼":{"x_min":68.296875,"x_max":1293.3125,"ha":1389,"o":"m 331 410 l 331 917 l 303 917 l 68 854 l 68 819 l 228 829 l 228 410 l 79 386 l 79 353 l 479 353 l 479 386 l 331 410 m 431 -19 l 1066 878 l 1011 917 l 377 19 l 431 -19 m 1293 164 l 1293 222 l 1187 222 l 1187 564 l 1143 564 l 808 190 l 808 164 l 1085 164 l 1085 57 l 972 39 l 972 0 l 1287 0 l 1287 39 l 1187 57 l 1187 164 l 1293 164 m 1085 429 l 1085 222 l 901 222 l 1085 429 "},"#":{"x_min":43.984375,"x_max":715,"ha":764,"o":"m 61 518 l 227 518 l 196 330 l 43 330 l 43 259 l 185 259 l 148 34 l 219 34 l 256 259 l 444 259 l 407 34 l 478 34 l 514 259 l 697 259 l 697 330 l 525 330 l 557 518 l 715 518 l 715 588 l 568 588 l 604 813 l 533 813 l 497 588 l 309 588 l 346 813 l 275 813 l 238 588 l 61 588 l 61 518 m 298 518 l 486 518 l 455 330 l 267 330 l 298 518 "},"":{"x_min":95.296875,"x_max":4853.421875,"ha":5049,"o":"m 715 659 l 706 586 l 703 586 b 529 678 668 652 604 678 b 140 261 306 678 140 464 b 409 -10 140 103 243 -10 b 627 78 518 -10 590 43 b 446 -137 604 -68 566 -137 b 349 -73 404 -137 355 -118 l 95 -73 b 420 -322 95 -252 273 -322 b 852 66 657 -322 808 -211 l 943 659 l 715 659 m 504 186 b 379 304 423 186 379 236 b 551 481 379 404 454 481 b 676 360 630 481 676 429 b 504 186 676 261 600 186 m 1372 182 b 1246 302 1290 182 1246 232 b 1416 477 1246 403 1323 477 b 1542 354 1498 477 1542 422 b 1372 182 1542 253 1465 182 m 1584 659 l 1573 592 b 1388 678 1535 649 1461 678 b 1009 270 1167 678 1009 467 b 1283 -18 1009 109 1113 -18 b 1491 75 1358 -18 1441 10 l 1493 75 l 1482 0 l 1709 0 l 1811 659 l 1584 659 m 1948 659 l 1848 0 l 2075 0 l 2127 339 b 2270 493 2140 425 2177 493 b 2354 409 2338 493 2354 452 b 2343 309 2354 385 2347 336 l 2296 0 l 2523 0 l 2584 396 b 2591 477 2589 427 2591 456 b 2387 678 2591 599 2533 678 b 2165 571 2298 678 2230 650 l 2163 571 l 2176 659 l 1948 659 m 3546 1060 l 3319 1060 l 3247 592 b 3061 678 3209 649 3135 678 b 2681 268 2843 678 2681 465 b 2955 -18 2681 109 2786 -18 b 3164 75 3030 -18 3114 10 l 3166 75 l 3155 0 l 3383 0 l 3546 1060 m 3524 0 l 3752 0 l 3804 338 b 3946 493 3816 414 3857 493 b 4031 397 4013 493 4031 450 b 4025 338 4031 382 4028 356 l 3972 0 l 4200 0 l 4262 402 b 4268 471 4266 427 4268 449 b 4063 678 4268 597 4202 678 b 3843 572 3975 678 3907 645 l 3840 572 l 3916 1060 l 3689 1060 l 3524 0 m 4439 659 l 4337 0 l 4564 0 l 4666 659 l 4439 659 m 4571 777 b 4720 927 4650 777 4720 849 b 4611 1036 4720 989 4675 1036 b 4462 888 4530 1036 4462 963 b 4571 777 4462 827 4506 777 m 1008 -322 l 1034 -322 l 1034 -111 l 1008 -111 l 1008 -322 m 1097 -141 l 1121 -141 l 1121 -111 l 1097 -111 l 1097 -141 m 1097 -322 l 1121 -322 l 1121 -169 l 1097 -169 l 1097 -322 m 1207 -322 l 1207 -302 b 1248 -324 1216 -317 1230 -324 b 1313 -242 1288 -324 1313 -288 b 1249 -166 1313 -208 1295 -166 b 1208 -186 1233 -166 1219 -173 l 1208 -111 l 1182 -111 l 1182 -322 l 1207 -322 m 1246 -303 b 1207 -245 1229 -303 1207 -291 b 1248 -187 1207 -215 1218 -187 b 1287 -245 1276 -187 1287 -218 b 1246 -303 1287 -269 1276 -303 m 1355 -322 l 1380 -322 l 1380 -241 b 1408 -192 1380 -223 1384 -192 b 1427 -198 1415 -192 1423 -195 l 1435 -175 b 1410 -166 1427 -169 1418 -166 b 1377 -192 1395 -166 1385 -176 l 1377 -169 l 1355 -169 l 1355 -322 m 1528 -324 b 1599 -242 1577 -324 1599 -290 b 1528 -166 1599 -198 1573 -166 b 1459 -245 1484 -166 1459 -198 b 1528 -324 1459 -291 1479 -323 m 1528 -303 b 1484 -245 1497 -303 1484 -278 b 1528 -187 1484 -216 1494 -187 b 1573 -244 1553 -187 1573 -208 b 1528 -303 1573 -276 1559 -303 m 1636 -276 b 1700 -324 1641 -310 1664 -324 b 1759 -277 1734 -324 1759 -308 b 1704 -230 1759 -247 1736 -238 b 1664 -206 1678 -223 1664 -222 b 1697 -187 1664 -191 1679 -187 b 1730 -212 1715 -187 1724 -195 l 1754 -208 b 1694 -166 1750 -179 1730 -166 b 1640 -209 1667 -166 1640 -177 b 1734 -280 1640 -266 1734 -247 b 1700 -303 1734 -297 1716 -303 b 1660 -272 1680 -303 1663 -295 l 1636 -276 m 1863 -269 l 1863 -233 l 1829 -233 l 1829 -269 l 1863 -269 m 1963 -322 l 1963 -240 b 2000 -188 1963 -212 1973 -188 b 2027 -222 2019 -188 2027 -201 l 2027 -322 l 2052 -322 l 2052 -231 b 2089 -188 2052 -209 2061 -188 b 2116 -223 2109 -188 2116 -201 l 2116 -322 l 2140 -322 l 2140 -216 b 2094 -166 2140 -188 2131 -166 b 2049 -192 2076 -166 2060 -175 b 2007 -166 2042 -177 2030 -166 b 1961 -190 1986 -166 1973 -175 l 1961 -169 l 1939 -169 l 1939 -322 l 1963 -322 m 2313 -322 l 2313 -169 l 2287 -169 l 2287 -255 b 2248 -302 2287 -279 2279 -302 b 2218 -266 2230 -302 2218 -294 l 2218 -169 l 2192 -169 l 2192 -269 b 2244 -324 2192 -301 2204 -324 b 2290 -299 2263 -324 2279 -316 l 2290 -322 l 2313 -322 m 2259 -150 l 2289 -109 l 2256 -109 l 2237 -150 l 2259 -150 m 2560 -141 l 2560 -111 l 2534 -111 l 2534 -141 l 2560 -141 m 2560 -322 l 2560 -169 l 2534 -169 l 2534 -322 l 2560 -322 m 2714 -266 b 2676 -303 2710 -285 2700 -303 b 2635 -245 2646 -303 2635 -278 b 2676 -187 2635 -213 2644 -187 b 2711 -217 2696 -187 2707 -200 l 2736 -213 b 2676 -166 2730 -184 2710 -166 b 2608 -245 2629 -166 2608 -200 b 2676 -324 2608 -291 2629 -324 b 2738 -269 2712 -324 2733 -303 l 2714 -266 m 2877 -302 b 2883 -322 2879 -309 2880 -316 l 2909 -322 b 2902 -272 2903 -312 2902 -297 l 2902 -215 b 2842 -166 2902 -180 2884 -166 b 2776 -212 2808 -166 2783 -177 l 2801 -216 b 2839 -187 2805 -198 2815 -187 b 2876 -216 2859 -187 2876 -193 l 2876 -224 b 2771 -281 2845 -240 2771 -224 b 2823 -324 2771 -309 2791 -324 b 2877 -302 2846 -324 2861 -316 m 2876 -259 b 2828 -305 2876 -290 2854 -305 b 2798 -280 2813 -305 2798 -297 b 2876 -245 2798 -249 2853 -258 l 2876 -259 m 3152 -322 l 3209 -169 l 3183 -169 l 3140 -291 l 3098 -169 l 3072 -169 l 3128 -322 l 3152 -322 m 3277 -141 l 3277 -111 l 3251 -111 l 3251 -141 l 3277 -141 m 3277 -322 l 3277 -169 l 3251 -169 l 3251 -322 l 3277 -322 m 3609 -272 b 3569 -303 3605 -290 3591 -303 b 3524 -252 3542 -303 3526 -278 l 3636 -252 l 3636 -241 b 3568 -166 3636 -202 3613 -166 b 3499 -247 3524 -166 3499 -198 b 3569 -324 3499 -291 3520 -324 b 3636 -276 3602 -324 3625 -309 l 3609 -272 m 3526 -230 b 3569 -187 3529 -207 3542 -187 b 3610 -230 3594 -187 3608 -205 l 3526 -230 m 4364 -322 l 4364 -190 l 4393 -190 l 4393 -169 l 4364 -169 l 4364 -155 b 4382 -131 4364 -141 4366 -131 b 4400 -133 4387 -131 4392 -131 l 4404 -111 b 4379 -108 4400 -109 4389 -108 b 4338 -150 4353 -108 4338 -120 l 4338 -169 l 4317 -169 l 4317 -190 l 4338 -190 l 4338 -322 l 4364 -322 m 4534 -109 l 4500 -109 l 4483 -150 l 4503 -150 l 4534 -109 m 4762 -4 b 4853 86 4811 -4 4853 31 b 4762 177 4853 140 4811 177 b 4671 86 4713 177 4671 140 b 4762 -4 4671 31 4713 -4 m 4762 14 b 4695 86 4725 14 4695 45 b 4762 157 4695 127 4725 157 b 4828 86 4798 157 4828 127 b 4762 14 4828 45 4798 14 m 4745 35 l 4745 78 l 4759 78 l 4782 35 l 4804 35 l 4777 79 b 4803 107 4792 81 4803 88 b 4764 136 4803 129 4789 136 l 4726 136 l 4726 35 l 4745 35 m 4763 121 b 4784 109 4771 121 4784 120 b 4763 95 4784 96 4775 95 l 4745 95 l 4745 121 l 4763 121 m 3009 -269 l 3009 -233 l 2975 -233 l 2975 -269 l 3009 -269 m 3916 -269 l 3916 -233 l 3881 -233 l 3881 -269 l 3916 -269 m 3043 182 b 2918 302 2962 182 2918 232 b 3088 477 2918 403 2994 477 b 3214 354 3170 477 3214 422 b 3043 182 3214 253 3138 182 m 2360 -276 b 2424 -324 2365 -310 2388 -324 b 2484 -277 2458 -324 2484 -308 b 2428 -230 2484 -247 2461 -238 b 2388 -206 2402 -223 2388 -222 b 2421 -187 2388 -191 2403 -187 b 2454 -212 2439 -187 2448 -195 l 2478 -208 b 2418 -166 2474 -179 2454 -166 b 2364 -209 2391 -166 2364 -177 b 2458 -280 2364 -266 2458 -247 b 2424 -303 2458 -297 2440 -303 b 2384 -272 2405 -303 2387 -295 l 2360 -276 m 3454 -322 l 3454 -111 l 3428 -111 l 3428 -186 b 3387 -166 3417 -173 3403 -166 b 3323 -242 3341 -166 3323 -208 b 3388 -324 3323 -292 3348 -324 b 3429 -302 3406 -324 3420 -317 l 3429 -322 l 3454 -322 m 3390 -303 b 3349 -245 3360 -303 3349 -273 b 3388 -187 3349 -218 3360 -187 b 3431 -245 3417 -187 3431 -215 b 3390 -303 3431 -291 3407 -303 m 3745 -324 b 3816 -242 3794 -324 3816 -290 b 3745 -166 3816 -198 3790 -166 b 3676 -245 3701 -166 3676 -198 b 3745 -324 3676 -291 3696 -323 m 3745 -303 b 3701 -245 3714 -303 3701 -278 b 3745 -187 3701 -216 3711 -187 b 3790 -244 3769 -187 3790 -208 b 3745 -303 3790 -276 3776 -303 m 4087 -266 b 4049 -303 4083 -285 4073 -303 b 4008 -245 4019 -303 4008 -278 b 4049 -187 4008 -213 4017 -187 b 4084 -217 4069 -187 4080 -200 l 4108 -213 b 4049 -166 4103 -184 4083 -166 b 3980 -245 4002 -166 3980 -200 b 4049 -324 3980 -291 4002 -324 b 4111 -269 4085 -324 4106 -303 l 4087 -266 m 4251 -302 b 4257 -322 4253 -309 4254 -316 l 4283 -322 b 4276 -272 4277 -312 4276 -297 l 4276 -215 b 4216 -166 4276 -180 4258 -166 b 4151 -212 4182 -166 4157 -177 l 4175 -216 b 4213 -187 4179 -198 4189 -187 b 4250 -216 4234 -187 4250 -193 l 4250 -224 b 4145 -281 4219 -240 4145 -224 b 4197 -324 4145 -309 4166 -324 b 4251 -302 4220 -324 4235 -316 m 4250 -259 b 4202 -305 4250 -290 4228 -305 b 4172 -280 4187 -305 4172 -297 b 4250 -245 4172 -249 4227 -258 l 4250 -259 m 4537 -272 b 4498 -303 4533 -290 4519 -303 b 4453 -252 4470 -303 4454 -278 l 4564 -252 l 4564 -241 b 4496 -166 4564 -202 4541 -166 b 4427 -247 4453 -166 4427 -198 b 4498 -324 4427 -291 4449 -324 b 4564 -276 4530 -324 4553 -309 l 4537 -272 m 4454 -230 b 4498 -187 4457 -207 4470 -187 b 4539 -230 4522 -187 4536 -205 l 4454 -230 "},"Ê":{"x_min":55.328125,"x_max":749.609375,"ha":840,"o":"m 55 0 l 737 0 l 749 278 l 718 278 l 631 51 l 311 51 l 311 462 l 503 462 l 550 324 l 580 324 l 580 649 l 550 649 l 503 512 l 311 512 l 311 878 l 627 878 l 692 689 l 727 689 l 727 930 l 55 930 l 55 899 l 184 864 l 184 64 l 55 30 l 55 0 m 386 1227 b 235 1030 354 1178 273 1075 l 263 1008 l 412 1106 l 560 1008 l 589 1030 b 437 1227 550 1075 469 1178 l 386 1227 "},")":{"x_min":81.671875,"x_max":517.21875,"ha":625,"o":"m 517 440 b 99 1092 517 769 321 1016 l 83 1060 b 390 440 280 947 390 722 b 81 -179 390 158 277 -66 l 96 -211 b 517 440 318 -135 515 111 "},"Å":{"x_min":33.984375,"x_max":969.03125,"ha":1031,"o":"m 725 63 l 585 30 l 585 0 l 969 0 l 969 30 l 854 61 l 525 950 l 485 950 l 146 63 l 33 29 l 33 0 l 347 0 l 347 29 l 213 62 l 313 333 l 624 333 l 725 63 m 469 754 l 605 384 l 332 384 l 469 754 m 379 1123 b 506 998 379 1045 435 998 b 632 1123 575 998 632 1045 b 506 1250 632 1201 575 1250 b 379 1123 435 1250 379 1201 m 446 1123 b 506 1202 446 1175 473 1202 b 566 1123 538 1202 566 1175 b 506 1044 566 1072 538 1044 b 446 1123 473 1044 446 1072 "},"ø":{"x_min":68.234375,"x_max":696.953125,"ha":781,"o":"m 162 -34 l 207 29 b 381 -19 253 -1 310 -19 b 696 334 590 -19 696 138 b 602 591 696 433 665 527 l 675 693 l 604 693 l 557 627 b 383 677 511 658 453 677 b 68 325 174 677 68 520 b 162 65 68 225 99 130 l 91 -34 l 162 -34 m 198 329 b 381 638 198 551 265 638 b 515 568 438 638 484 616 l 220 148 b 198 329 205 194 198 254 m 383 19 b 249 88 326 19 280 40 l 544 506 b 566 330 557 462 566 404 b 383 19 566 108 499 19 "},"â":{"x_min":48.921875,"x_max":613.78125,"ha":656,"o":"m 613 33 l 579 33 b 513 118 530 33 513 54 l 513 493 b 337 677 513 604 464 677 b 66 525 201 677 66 615 b 142 470 66 494 81 470 l 168 470 b 302 638 171 586 228 638 b 401 501 363 638 401 602 l 401 337 b 48 112 175 309 48 233 b 206 -19 48 22 122 -19 b 401 83 289 -19 361 30 l 401 58 b 489 -19 401 8 436 -19 b 613 2 530 -19 587 -8 l 613 33 m 170 140 b 401 298 170 218 262 276 l 401 141 b 254 47 364 86 307 47 b 170 140 201 47 170 81 m 296 1027 b 151 793 265 968 190 847 l 183 775 l 322 907 l 461 775 l 494 793 b 348 1027 454 847 379 968 l 296 1027 "},"}":{"x_min":81.671875,"x_max":563.5,"ha":644,"o":"m 563 456 b 421 683 423 487 421 551 l 421 868 b 140 1098 421 1095 307 1098 l 81 1098 l 81 1059 l 140 1059 b 295 893 236 1059 295 1051 l 295 726 b 468 440 295 543 330 476 b 295 154 330 404 295 337 l 295 -12 b 140 -179 295 -170 236 -179 l 81 -179 l 81 -218 l 140 -218 b 421 12 307 -218 421 -215 l 421 197 b 563 423 421 329 423 393 l 563 456 "},"‰":{"x_min":61.25,"x_max":1528.53125,"ha":1622,"o":"m 249 -19 l 883 878 l 828 917 l 194 19 l 249 -19 m 1016 205 b 809 421 1016 317 939 421 b 593 197 676 421 593 329 b 798 -19 593 86 669 -19 b 1016 205 932 -19 1016 67 m 920 203 b 807 15 920 74 876 15 b 690 199 741 15 690 60 b 803 386 690 336 737 386 b 920 203 871 386 920 340 m 61 692 b 268 476 61 580 138 476 b 484 700 401 476 484 568 b 279 917 484 811 408 917 b 61 692 145 917 61 830 m 157 694 b 270 882 157 823 201 882 b 387 698 336 882 387 837 b 274 511 387 561 340 511 b 157 694 206 511 157 557 m 1528 205 b 1321 421 1528 317 1450 421 b 1105 197 1188 421 1105 329 b 1310 -19 1105 86 1181 -19 b 1528 205 1444 -19 1528 67 m 1431 203 b 1318 15 1431 74 1388 15 b 1201 199 1253 15 1201 60 b 1314 386 1201 336 1249 386 b 1431 203 1382 386 1431 340 "},"Ä":{"x_min":33.984375,"x_max":969.03125,"ha":1031,"o":"m 725 63 l 585 30 l 585 0 l 969 0 l 969 30 l 854 61 l 525 950 l 485 950 l 146 63 l 33 29 l 33 0 l 347 0 l 347 29 l 213 62 l 313 333 l 624 333 l 725 63 m 469 754 l 605 384 l 332 384 l 469 754 m 363 1040 b 439 1115 404 1040 439 1073 b 363 1190 439 1156 404 1190 b 287 1115 321 1190 287 1156 b 363 1040 287 1073 321 1040 m 646 1040 b 722 1115 687 1040 722 1073 b 646 1190 722 1156 687 1190 b 570 1115 604 1190 570 1156 b 646 1040 570 1073 604 1040 "},"¸":{"x_min":137.21875,"x_max":406.71875,"ha":556,"o":"m 406 -191 b 261 -88 406 -123 341 -88 l 333 0 l 273 0 l 171 -134 l 180 -159 b 310 -227 252 -159 310 -180 b 239 -280 310 -261 281 -280 b 157 -259 209 -280 176 -270 l 137 -298 b 244 -326 167 -315 201 -326 b 406 -191 331 -326 406 -272 "},"a":{"x_min":47.640625,"x_max":612.5,"ha":656,"o":"m 612 33 l 578 33 b 511 118 529 33 511 54 l 511 493 b 336 677 511 604 462 677 b 65 525 200 677 65 615 b 141 470 65 494 80 470 l 167 470 b 300 638 170 586 227 638 b 400 501 362 638 400 602 l 400 337 b 47 112 174 309 47 233 b 205 -19 47 22 121 -19 b 400 83 288 -19 360 30 l 400 58 b 488 -19 400 8 435 -19 b 612 2 529 -19 586 -8 l 612 33 m 168 140 b 400 298 168 218 261 276 l 400 141 b 253 47 363 86 306 47 b 168 140 200 47 168 81 "},"—":{"x_min":47.640625,"x_max":1177.359375,"ha":1250,"o":"m 1177 309 l 1177 387 l 47 387 l 47 309 l 1177 309 "},"=":{"x_min":68.0625,"x_max":680.5625,"ha":764,"o":"m 680 254 l 680 326 l 68 326 l 68 254 l 680 254 m 680 518 l 680 590 l 68 590 l 68 518 l 680 518 "},"N":{"x_min":47.640625,"x_max":1001.78125,"ha":1071,"o":"m 872 -12 l 872 868 l 1001 900 l 1001 930 l 675 930 l 675 900 l 811 868 l 811 230 l 318 930 l 47 930 l 47 900 l 176 865 l 176 62 l 47 30 l 47 0 l 374 0 l 374 30 l 238 62 l 238 820 l 833 -12 l 872 -12 "},"˚":{"x_min":145.640625,"x_max":398.8125,"ha":556,"o":"m 145 901 b 272 776 145 823 201 776 b 398 901 341 776 398 823 b 272 1027 398 979 341 1027 b 145 901 201 1027 145 979 m 212 901 b 272 980 212 952 239 980 b 332 901 304 980 332 952 b 272 822 332 850 304 822 b 212 901 239 822 212 850 "},"ú":{"x_min":20.421875,"x_max":722.75,"ha":779,"o":"m 518 579 l 518 137 b 366 62 476 94 419 62 b 231 217 285 62 231 111 l 231 678 l 20 625 l 20 591 l 119 579 l 119 190 b 302 -19 119 55 189 -19 b 518 85 381 -19 468 32 l 518 -19 l 722 33 l 722 67 l 630 79 l 630 678 l 419 625 l 419 591 l 518 579 m 317 775 b 521 986 383 820 521 944 b 424 1031 521 1012 490 1025 b 284 793 404 975 334 864 l 317 775 "},"⁄":{"x_min":-207.71875,"x_max":481,"ha":278,"o":"m -153 -19 l 481 878 l 426 917 l -207 19 l -153 -19 "},"2":{"x_min":43.5625,"x_max":666.953125,"ha":764,"o":"m 589 108 l 197 108 b 619 686 496 352 619 525 b 343 916 619 825 515 916 b 70 748 190 916 70 844 b 178 680 70 693 123 681 b 322 873 181 798 228 873 b 479 652 427 873 479 769 b 43 27 479 427 283 234 l 43 0 l 654 0 l 666 261 l 635 261 l 589 108 "},"ü":{"x_min":20.421875,"x_max":722.75,"ha":779,"o":"m 518 579 l 518 137 b 366 62 476 94 419 62 b 231 217 285 62 231 111 l 231 678 l 20 625 l 20 591 l 119 579 l 119 190 b 302 -19 119 55 189 -19 b 518 85 381 -19 468 32 l 518 -19 l 722 33 l 722 67 l 630 79 l 630 678 l 419 625 l 419 591 l 518 579 m 216 818 b 292 893 257 818 292 851 b 216 968 292 934 257 968 b 140 893 174 968 140 934 b 216 818 140 851 174 818 m 499 818 b 575 893 540 818 575 851 b 499 968 575 934 540 968 b 423 893 457 968 423 934 b 499 818 423 851 457 818 "},"¯":{"x_min":88.46875,"x_max":455.96875,"ha":556,"o":"m 455 911 l 88 911 l 88 827 l 455 827 l 455 911 "},"Z":{"x_min":47.640625,"x_max":775.828125,"ha":861,"o":"m 775 279 l 744 279 l 656 50 l 208 50 l 751 902 l 751 930 l 85 930 l 85 690 l 121 690 l 186 879 l 589 879 l 47 27 l 47 0 l 763 0 l 775 279 "},"⁸":{"x_min":44.921875,"x_max":500.890625,"ha":556,"o":"m 44 598 b 274 456 44 511 130 456 b 500 615 413 456 500 529 b 355 779 500 698 431 743 b 484 905 439 802 484 848 b 277 1037 484 988 411 1037 b 65 883 160 1037 65 981 b 168 744 65 815 110 775 b 44 598 89 715 44 658 m 401 581 b 276 501 401 519 341 501 b 148 602 210 501 148 536 b 213 723 148 647 167 688 b 401 581 303 683 401 654 m 164 922 b 274 993 164 968 210 993 b 378 908 329 993 378 968 b 311 797 378 858 353 822 b 164 922 235 830 164 862 "},"u":{"x_min":20.421875,"x_max":722.75,"ha":779,"o":"m 518 579 l 518 137 b 366 62 476 94 419 62 b 231 217 285 62 231 111 l 231 678 l 20 625 l 20 591 l 119 579 l 119 190 b 302 -19 119 55 189 -19 b 518 85 381 -19 468 32 l 518 -19 l 722 33 l 722 67 l 630 79 l 630 678 l 419 625 l 419 591 l 518 579 "},"˜":{"x_min":68,"x_max":476.328125,"ha":556,"o":"m 439 1001 b 375 918 423 952 408 918 b 186 983 332 918 238 983 b 68 812 121 983 88 929 l 104 802 b 168 886 121 851 136 886 b 357 820 212 886 306 820 b 476 991 423 820 455 875 l 439 1001 "},"Ó":{"x_min":74.859375,"x_max":962.3125,"ha":1058,"o":"m 532 27 b 209 467 328 27 209 174 b 504 902 209 720 318 902 b 827 463 709 902 827 756 b 532 27 827 210 718 27 m 513 -19 b 962 463 809 -19 962 192 b 524 949 962 739 828 949 b 74 467 227 949 74 738 b 513 -19 74 191 208 -19 m 398 1008 b 661 1144 491 1031 661 1101 b 585 1211 661 1169 635 1188 b 374 1035 547 1166 445 1085 l 398 1008 "},"k":{"x_min":41.34375,"x_max":720.546875,"ha":763,"o":"m 517 602 l 282 336 l 517 27 b 629 -19 547 -11 583 -19 b 720 2 660 -19 700 -9 l 720 30 b 602 101 663 31 634 58 l 380 384 l 585 600 l 679 630 l 679 658 l 425 658 l 425 630 l 517 602 m 351 0 l 351 27 l 252 58 l 252 1008 l 41 955 l 41 922 l 140 909 l 140 58 l 41 27 l 41 0 l 351 0 "},"ˇ":{"x_min":101,"x_max":444,"ha":556,"o":"m 298 782 b 444 1016 329 841 404 962 l 411 1034 l 272 903 l 133 1034 l 101 1016 b 246 782 140 962 215 841 l 298 782 "},"Ù":{"x_min":40.78125,"x_max":992.1875,"ha":1047,"o":"m 798 362 b 552 47 798 149 688 47 b 296 340 413 47 296 141 l 296 865 l 430 899 l 430 930 l 40 930 l 40 899 l 170 865 l 170 299 b 521 -19 170 77 351 -19 b 862 341 696 -19 862 98 l 862 867 l 992 899 l 992 930 l 661 930 l 661 899 l 798 867 l 798 362 m 656 1036 b 445 1211 585 1086 483 1166 b 368 1144 394 1188 368 1169 b 631 1008 368 1101 538 1031 l 656 1036 "},"Ÿ":{"x_min":27.21875,"x_max":922.828125,"ha":969,"o":"m 417 390 l 417 65 l 279 30 l 279 0 l 683 0 l 683 30 l 544 65 l 544 406 l 815 865 l 922 901 l 922 930 l 596 930 l 596 901 l 739 865 l 510 459 l 273 865 l 417 901 l 417 930 l 27 930 l 27 900 l 127 866 l 417 390 m 363 1040 b 439 1115 404 1040 439 1073 b 363 1190 439 1156 404 1190 b 287 1115 321 1190 287 1156 b 363 1040 287 1073 321 1040 m 646 1040 b 722 1115 687 1040 722 1073 b 646 1190 722 1156 687 1190 b 570 1115 604 1190 570 1156 b 646 1040 570 1073 604 1040 "},"€":{"x_min":54.4375,"x_max":683.28125,"ha":764,"o":"m 54 500 l 147 500 b 144 437 145 479 144 458 l 144 404 l 54 404 l 54 355 l 148 355 b 469 -19 171 126 294 -19 b 665 37 534 -19 617 8 l 683 263 l 635 263 b 475 26 626 113 571 26 b 281 355 349 26 294 152 l 547 355 l 547 404 l 279 404 l 279 500 l 547 500 l 547 548 l 283 548 b 469 873 298 722 357 873 b 637 665 563 873 611 784 l 683 665 l 677 868 b 476 916 637 888 547 916 b 151 548 314 916 182 780 l 54 548 l 54 500 "},"¢":{"x_min":81.671875,"x_max":666.953125,"ha":764,"o":"m 357 -158 l 411 -158 l 411 -18 b 666 101 500 -9 598 41 l 646 133 b 430 54 578 86 502 54 l 411 54 l 411 638 l 415 638 b 549 473 499 638 547 572 b 657 541 615 473 657 495 b 431 677 657 618 559 677 l 411 677 l 411 823 l 357 823 l 357 669 b 81 280 167 631 81 445 b 357 -18 81 101 194 -6 l 357 -158 m 200 340 b 357 629 200 494 268 598 l 357 63 b 200 340 258 93 200 190 "},"Ω":{"x_min":54.890625,"x_max":985.109375,"ha":1061,"o":"m 898 108 l 653 108 b 951 551 752 168 951 298 b 520 950 951 816 763 950 b 88 551 276 950 88 816 b 387 108 88 298 287 168 l 142 108 l 86 261 l 54 261 l 76 0 l 441 0 l 441 104 b 223 544 309 209 223 322 b 520 902 223 738 321 902 b 816 544 718 902 816 738 b 598 104 816 322 730 209 l 598 0 l 963 0 l 985 261 l 953 261 l 898 108 "},"ß":{"x_min":54.4375,"x_max":807.140625,"ha":865,"o":"m 153 58 l 54 27 l 54 0 l 265 0 l 265 716 b 443 970 265 877 332 970 b 611 815 544 970 611 900 b 419 461 611 656 419 586 b 714 126 419 302 714 275 b 589 19 714 58 658 19 b 458 181 499 19 461 69 b 366 102 405 177 366 144 b 583 -19 366 20 477 -19 b 807 183 702 -19 807 59 b 506 519 807 384 506 405 b 721 834 506 618 721 700 b 454 1008 721 937 592 1008 b 153 697 255 1008 153 870 l 153 658 l 54 658 l 54 604 l 153 604 l 153 58 "},"é":{"x_min":67.375,"x_max":619.984375,"ha":703,"o":"m 345 -19 b 617 97 443 -19 547 27 l 598 129 b 398 54 531 80 468 54 b 183 350 267 54 183 163 b 184 393 183 365 183 379 l 617 393 b 619 437 618 401 619 419 b 374 677 619 593 524 677 b 67 301 191 677 67 525 b 345 -19 67 98 181 -19 m 365 638 b 493 476 451 638 493 575 b 490 434 493 462 492 450 l 188 434 b 365 638 211 576 290 638 m 293 775 b 497 986 360 820 497 944 b 400 1031 497 1012 466 1025 b 260 793 380 975 311 864 l 293 775 "},"s":{"x_min":47.640625,"x_max":515.859375,"ha":585,"o":"m 515 175 b 325 381 515 281 423 333 b 164 529 235 426 164 461 b 277 637 164 601 215 637 b 393 491 363 637 393 573 b 492 558 446 491 492 508 b 298 677 492 636 411 677 b 74 483 181 677 74 604 b 265 270 74 372 161 323 b 415 127 366 219 415 188 b 277 19 415 62 353 19 b 140 181 191 19 142 73 b 47 102 87 177 47 144 b 273 -19 47 20 163 -19 b 515 175 404 -19 515 51 "},"B":{"x_min":54.4375,"x_max":784,"ha":863,"o":"m 54 0 l 453 0 b 784 258 668 0 784 115 b 517 486 784 420 646 477 b 735 715 654 522 735 608 b 445 930 735 884 583 930 l 54 930 l 54 900 l 183 865 l 183 65 l 54 30 l 54 0 m 310 508 l 310 875 b 427 884 338 880 386 884 b 598 704 539 884 598 823 b 409 508 598 576 525 508 l 310 508 m 642 241 b 412 44 642 109 574 44 b 310 55 372 44 338 48 l 310 459 l 402 459 b 642 241 558 459 642 381 "},"…":{"x_min":87.109375,"x_max":933.71875,"ha":1042,"o":"m 87 65 b 170 -19 87 19 125 -19 b 253 65 215 -19 253 19 b 170 150 253 111 215 150 b 87 65 125 150 87 111 m 427 65 b 510 -19 427 19 465 -19 b 593 65 555 -19 593 19 b 510 150 593 111 555 150 b 427 65 465 150 427 111 m 767 65 b 850 -19 767 19 805 -19 b 933 65 895 -19 933 19 b 850 150 933 111 895 150 b 767 65 805 150 767 111 "},"?":{"x_min":54.4375,"x_max":506.328125,"ha":572,"o":"m 54 795 b 130 741 54 754 84 741 l 156 741 b 283 912 159 841 201 912 b 405 786 355 912 405 861 b 121 388 405 602 121 572 b 276 263 121 304 196 263 b 396 298 318 263 370 281 l 385 336 b 295 311 362 323 325 311 b 227 372 254 311 227 336 b 506 754 227 487 506 540 b 277 950 506 865 415 950 b 54 795 157 950 55 886 m 183 65 b 266 -19 183 19 221 -19 b 349 65 311 -19 349 19 b 266 150 349 111 311 150 b 183 65 221 150 183 111 "},"H":{"x_min":54.4375,"x_max":1063.03125,"ha":1140,"o":"m 807 65 l 673 30 l 673 0 l 1063 0 l 1063 30 l 933 65 l 933 865 l 1063 900 l 1063 930 l 673 930 l 673 900 l 807 865 l 807 512 l 310 512 l 310 865 l 443 900 l 443 930 l 54 930 l 54 900 l 183 865 l 183 65 l 54 30 l 54 0 l 443 0 l 443 30 l 310 65 l 310 461 l 807 461 l 807 65 "},"î":{"x_min":19,"x_max":362,"ha":403,"o":"m 164 1027 b 19 793 133 968 58 847 l 51 775 l 190 907 l 329 775 l 362 793 b 216 1027 322 847 247 968 l 164 1027 m 360 0 l 360 28 l 261 58 l 261 678 l 50 625 l 50 591 l 149 579 l 149 58 l 50 28 l 50 0 l 360 0 "},"c":{"x_min":68.0625,"x_max":609.78125,"ha":678,"o":"m 68 280 b 348 -19 68 91 185 -19 b 609 101 441 -19 540 34 l 590 133 b 397 56 528 86 464 56 b 183 340 265 56 183 156 b 377 638 183 526 268 638 b 495 473 454 638 492 572 b 601 541 560 473 601 495 b 392 677 601 618 510 677 b 68 280 167 677 68 466 "},"¶":{"x_min":81.671875,"x_max":813.953125,"ha":914,"o":"m 436 340 l 436 -116 l 498 -116 l 498 877 l 623 877 l 623 -116 l 684 -116 l 684 865 l 813 899 l 813 930 l 439 930 b 81 644 215 930 81 833 b 436 340 81 441 231 344 m 436 390 b 209 641 288 403 209 503 b 436 877 209 792 291 877 l 436 390 "},"−":{"x_min":68.0625,"x_max":680.5625,"ha":764,"o":"m 680 386 l 680 458 l 68 458 l 68 386 l 680 386 "},"≠":{"x_min":68.0625,"x_max":680.953125,"ha":764,"o":"m 680 254 l 680 326 l 355 326 l 475 518 l 680 518 l 680 590 l 520 590 l 610 734 l 532 734 l 442 590 l 68 590 l 68 518 l 397 518 l 277 326 l 68 326 l 68 254 l 232 254 l 141 108 l 219 108 l 310 254 l 680 254 "},"•":{"x_min":91.1875,"x_max":451.890625,"ha":556,"o":"m 270 237 b 451 420 374 237 451 319 b 270 605 451 523 374 605 b 91 420 168 605 91 523 b 270 237 91 319 168 237 "},"¥":{"x_min":22.640625,"x_max":733.140625,"ha":764,"o":"m 130 409 l 315 409 l 315 313 l 130 313 l 130 265 l 315 265 l 315 65 l 185 30 l 185 0 l 571 0 l 571 30 l 441 65 l 441 265 l 622 265 l 622 313 l 441 313 l 441 409 l 622 409 l 622 458 l 448 458 l 648 831 l 733 868 l 733 897 l 475 897 l 475 868 l 583 831 l 410 490 l 237 831 l 354 868 l 354 897 l 22 897 l 22 866 l 101 833 l 294 458 l 130 458 l 130 409 "},"(":{"x_min":95.28125,"x_max":530.828125,"ha":625,"o":"m 95 440 b 513 -211 95 111 291 -135 l 529 -179 b 221 440 332 -66 221 158 b 530 1060 221 722 334 947 l 515 1092 b 95 440 294 1016 96 769 "},"U":{"x_min":40.828125,"x_max":992.25,"ha":1047,"o":"m 798 362 b 552 47 798 150 688 47 b 296 340 413 47 296 141 l 296 865 l 430 900 l 430 930 l 40 930 l 40 900 l 170 865 l 170 300 b 521 -19 170 77 351 -19 b 862 341 696 -19 862 98 l 862 868 l 992 900 l 992 930 l 661 930 l 661 900 l 798 868 l 798 362 "},"◊":{"x_min":44,"x_max":704,"ha":764,"o":"m 386 -19 l 704 448 l 386 916 l 361 916 l 44 448 l 361 -19 l 386 -19 m 373 81 l 129 448 l 371 813 l 616 447 l 373 81 "},"Ñ":{"x_min":47.53125,"x_max":1001.671875,"ha":1071,"o":"m 872 -12 l 872 868 l 1001 900 l 1001 930 l 675 930 l 675 900 l 811 868 l 811 230 l 318 930 l 47 930 l 47 900 l 176 865 l 176 62 l 47 30 l 47 0 l 374 0 l 374 30 l 238 62 l 238 820 l 832 -12 l 872 -12 m 703 1223 b 639 1140 687 1175 672 1140 b 450 1205 596 1140 502 1205 b 332 1034 385 1205 352 1151 l 368 1025 b 432 1108 385 1073 400 1108 b 621 1043 476 1108 570 1043 b 740 1213 687 1043 719 1097 l 703 1223 "},"F":{"x_min":54.4375,"x_max":726.828125,"ha":797,"o":"m 310 65 l 310 462 l 488 462 l 536 325 l 566 325 l 566 650 l 536 650 l 488 512 l 310 512 l 310 879 l 624 879 l 691 694 l 726 694 l 726 930 l 54 930 l 54 900 l 183 865 l 183 65 l 54 30 l 54 0 l 453 0 l 453 30 l 310 65 "},"­":{"x_min":47.640625,"x_max":428.75,"ha":486,"o":"m 428 309 l 428 387 l 47 387 l 47 309 l 428 309 "},"⁹":{"x_min":43.90625,"x_max":494.4375,"ha":556,"o":"m 328 729 b 267 718 310 723 290 718 b 150 860 195 718 150 768 b 260 990 150 948 199 990 b 388 805 363 990 388 886 b 101 479 388 640 278 535 l 111 442 b 494 812 327 489 494 610 b 275 1036 494 964 397 1036 b 43 836 143 1036 43 960 b 230 668 43 742 109 668 b 339 693 273 668 312 680 l 328 729 "},":":{"x_min":87.109375,"x_max":253.171875,"ha":347,"o":"m 87 65 b 170 -19 87 19 125 -19 b 253 65 215 -19 253 19 b 170 150 253 111 215 150 b 87 65 125 150 87 111 m 87 495 b 170 411 87 450 125 411 b 253 495 215 411 253 450 b 170 580 253 541 215 580 b 87 495 125 580 87 541 "},"Û":{"x_min":40.9375,"x_max":992.46875,"ha":1047,"o":"m 799 362 b 552 46 799 149 688 46 b 296 339 413 46 296 141 l 296 864 l 430 899 l 430 930 l 40 930 l 40 899 l 170 864 l 170 299 b 521 -19 170 77 351 -19 b 863 341 697 -19 863 98 l 863 867 l 992 899 l 992 930 l 661 930 l 661 899 l 799 867 l 799 362 m 505 1227 b 354 1030 473 1178 392 1075 l 382 1008 l 531 1106 l 679 1008 l 708 1030 b 556 1227 669 1075 588 1178 l 505 1227 "},"*":{"x_min":54,"x_max":529,"ha":596,"o":"m 304 652 l 484 508 l 529 590 l 316 676 l 529 762 l 484 844 l 304 700 l 337 930 l 245 930 l 278 700 l 98 844 l 54 762 l 266 676 l 54 590 l 98 508 l 278 652 l 245 422 l 337 422 l 304 652 "},"†":{"x_min":58.53125,"x_max":622.03125,"ha":694,"o":"m 308 573 l 292 -116 l 387 -116 l 371 573 l 622 556 l 622 654 l 371 637 l 387 930 l 292 930 l 308 637 l 58 654 l 58 556 l 308 573 "},"°":{"x_min":155.171875,"x_max":593.4375,"ha":764,"o":"m 235 694 b 374 848 235 787 298 848 b 513 694 450 848 513 787 b 374 540 513 601 450 540 b 235 694 298 540 235 601 m 155 694 b 374 473 155 558 253 473 b 593 694 495 473 593 558 b 374 916 593 830 495 916 b 155 694 253 916 155 830 "},"V":{"x_min":40.984375,"x_max":976.0625,"ha":1031,"o":"m 540 183 l 285 865 l 431 900 l 431 930 l 40 930 l 40 900 l 156 865 l 484 -12 l 524 -12 l 860 862 l 976 901 l 976 930 l 656 930 l 656 901 l 795 866 l 540 183 "},"å":{"x_min":47.640625,"x_max":612.5,"ha":656,"o":"m 612 33 l 578 33 b 511 118 529 33 511 54 l 511 493 b 336 677 511 604 462 677 b 65 525 200 677 65 615 b 141 470 65 494 80 470 l 167 470 b 300 638 170 586 227 638 b 400 501 362 638 400 602 l 400 337 b 47 112 174 309 47 233 b 205 -19 47 22 121 -19 b 400 83 288 -19 360 30 l 400 58 b 488 -19 400 8 435 -19 b 612 2 529 -19 586 -8 l 612 33 m 168 140 b 400 298 168 218 261 276 l 400 141 b 253 47 363 86 306 47 b 168 140 200 47 168 81 m 194 901 b 321 776 194 823 250 776 b 447 901 390 776 447 823 b 321 1027 447 979 390 1027 b 194 901 250 1027 194 979 m 261 901 b 321 980 261 952 288 980 b 381 901 353 980 381 952 b 321 822 381 850 353 822 b 261 901 288 822 261 850 "}," ":{"x_min":0,"x_max":0,"ha":347},"0":{"x_min":65.328125,"x_max":683.28125,"ha":764,"o":"m 683 448 b 378 916 683 698 573 916 b 65 448 176 916 65 698 b 379 -19 65 195 166 -19 b 683 448 582 -19 683 200 m 548 448 b 382 27 548 106 472 27 b 200 448 280 27 200 84 b 381 869 200 754 249 869 b 548 448 465 869 548 819 "},"”":{"x_min":97.921875,"x_max":497.25,"ha":593,"o":"m 176 950 b 97 870 134 950 97 919 b 183 793 97 815 145 793 l 200 793 b 97 645 193 740 146 679 l 123 609 b 261 852 204 661 261 761 b 176 950 261 915 224 950 m 412 950 b 333 870 370 950 333 919 b 419 793 333 815 381 793 l 436 793 b 333 645 429 740 382 679 l 359 609 b 497 852 440 661 497 761 b 412 950 497 915 460 950 "},"¾":{"x_min":67.890625,"x_max":1292.78125,"ha":1389,"o":"m 440 -19 l 1075 878 l 1020 917 l 386 19 l 440 -19 m 1292 164 l 1292 222 l 1186 222 l 1186 564 l 1143 564 l 808 190 l 808 164 l 1084 164 l 1084 57 l 971 39 l 971 0 l 1287 0 l 1287 39 l 1186 57 l 1186 164 l 1292 164 m 1084 429 l 1084 222 l 900 222 l 1084 429 m 353 660 b 484 789 435 675 484 714 b 315 915 484 868 416 915 b 110 815 223 915 154 875 l 135 792 b 280 855 174 833 227 855 b 380 771 336 855 380 829 b 175 640 380 711 318 658 l 175 608 b 420 472 342 603 420 546 b 291 379 420 410 370 379 b 144 521 212 379 148 436 b 67 455 101 521 67 493 b 287 335 67 389 159 335 b 514 503 433 335 514 407 b 353 660 514 568 484 632 "},"@":{"x_min":81.671875,"x_max":1208.671875,"ha":1317,"o":"m 81 305 b 681 -311 81 -36 249 -311 b 1121 -169 842 -311 1015 -251 l 1087 -122 b 683 -251 986 -198 838 -251 b 149 305 326 -251 149 -37 b 672 870 149 644 357 870 b 1140 406 921 870 1140 719 b 903 54 1140 191 1035 54 b 850 141 862 54 850 77 l 850 493 b 675 677 850 604 801 677 b 404 525 539 677 404 615 b 480 470 404 494 419 470 l 506 470 b 639 638 509 586 566 638 b 739 501 700 638 739 602 l 739 337 b 386 112 513 309 386 233 b 544 -19 386 22 460 -19 b 739 83 627 -19 699 30 b 869 -16 744 20 789 -16 b 1208 405 1073 -16 1208 159 b 672 930 1208 768 943 930 b 81 305 287 930 81 651 m 507 140 b 739 298 507 218 600 276 l 739 141 b 592 47 702 86 645 47 b 507 140 539 47 507 81 "},"ö":{"x_min":68.0625,"x_max":696.890625,"ha":781,"o":"m 383 19 b 198 329 268 19 198 106 b 381 638 198 551 265 638 b 566 330 496 638 566 552 b 383 19 566 108 499 19 m 381 -19 b 696 334 590 -19 696 138 b 383 677 696 516 593 677 b 68 325 174 677 68 520 b 381 -19 68 143 171 -19 m 240 818 b 317 893 281 818 317 851 b 240 968 317 934 281 968 b 164 893 198 968 164 934 b 240 818 164 851 198 818 m 524 818 b 600 893 564 818 600 851 b 524 968 600 934 564 968 b 447 893 481 968 447 934 b 524 818 447 851 481 818 "},"i":{"x_min":50.359375,"x_max":360.6875,"ha":403,"o":"m 360 0 l 360 28 l 261 58 l 261 678 l 50 625 l 50 591 l 149 579 l 149 58 l 50 28 l 50 0 l 360 0 m 206 814 b 287 893 249 814 287 848 b 206 972 287 936 249 972 b 126 893 161 972 126 936 b 206 814 126 848 161 814 "},"⁶":{"x_min":50.859375,"x_max":502.75,"ha":556,"o":"m 216 763 b 278 774 234 769 256 774 b 395 632 351 774 395 724 b 286 501 395 544 346 501 b 158 685 181 501 158 606 b 444 1013 158 852 267 956 l 434 1051 b 50 680 218 1003 50 882 b 271 456 50 528 147 456 b 502 656 403 456 502 532 b 314 824 502 751 437 824 b 207 799 272 824 233 812 l 216 763 "},"≤":{"x_min":68.109375,"x_max":680.96875,"ha":764,"o":"m 680 0 l 680 72 l 68 72 l 68 0 l 680 0 m 102 429 l 600 158 l 637 226 l 196 463 l 637 701 l 600 769 l 102 498 l 102 429 "},"Õ":{"x_min":74.4375,"x_max":961.890625,"ha":1058,"o":"m 531 27 b 209 468 327 27 209 175 b 504 902 209 720 318 902 b 827 463 708 902 827 756 b 531 27 827 211 718 27 m 512 -19 b 961 463 809 -19 961 193 b 523 950 961 740 828 950 b 74 468 226 950 74 738 b 512 -19 74 191 207 -19 m 685 1223 b 621 1140 669 1175 654 1140 b 432 1205 578 1140 484 1205 b 314 1034 367 1205 334 1151 l 350 1025 b 414 1108 367 1073 382 1108 b 603 1043 458 1108 552 1043 b 722 1213 669 1043 701 1097 l 685 1223 "},"þ":{"x_min":20.421875,"x_max":695.53125,"ha":779,"o":"m 344 -318 l 344 -291 l 231 -260 l 231 4 b 368 -18 273 -7 322 -18 b 695 363 534 -18 695 104 b 446 678 695 550 590 678 b 231 574 356 678 283 629 l 231 1008 l 20 956 l 20 922 l 119 910 l 119 -260 l 20 -291 l 20 -318 l 344 -318 m 385 593 b 582 307 509 593 582 479 b 378 19 582 135 490 19 b 231 76 319 19 270 43 l 231 519 b 385 593 280 569 336 593 "},"]":{"x_min":81.671875,"x_max":446.4375,"ha":594,"o":"m 328 1059 l 328 -179 l 81 -179 l 81 -218 l 446 -218 l 446 1098 l 81 1098 l 81 1059 l 328 1059 "},"m":{"x_min":50.359375,"x_max":1155.578125,"ha":1210,"o":"m 360 0 l 360 28 l 261 58 l 261 521 b 415 596 306 568 362 596 b 547 441 498 596 547 547 l 547 58 l 447 28 l 447 0 l 758 0 l 758 28 l 658 58 l 658 516 b 812 596 703 565 759 596 b 944 441 895 596 944 547 l 944 58 l 845 28 l 845 0 l 1155 0 l 1155 28 l 1056 58 l 1056 468 b 875 678 1056 603 988 678 b 647 561 790 678 696 618 b 477 678 623 626 568 678 b 261 573 398 678 311 626 l 261 678 l 50 625 l 50 591 l 149 579 l 149 58 l 50 28 l 50 0 l 360 0 "},"8":{"x_min":66.6875,"x_max":684.640625,"ha":764,"o":"m 66 202 b 378 -19 66 75 183 -19 b 684 231 568 -19 684 94 b 479 481 684 362 586 427 b 661 702 588 525 661 608 b 385 916 661 827 564 916 b 93 673 225 916 93 820 b 251 447 93 558 164 495 b 66 202 132 394 66 304 m 570 184 b 389 27 570 72 476 27 b 187 211 264 27 187 104 b 285 429 187 294 217 369 b 570 184 417 363 570 319 m 204 723 b 379 868 204 823 289 868 b 552 701 495 868 552 793 b 442 498 552 611 502 541 b 204 723 322 555 204 608 "},"ž":{"x_min":54.28125,"x_max":593.28125,"ha":668,"o":"m 582 0 l 593 190 l 561 190 l 500 47 l 199 47 l 572 630 l 572 658 l 91 658 l 84 473 l 115 473 l 176 611 l 428 611 l 54 30 l 54 0 l 582 0 m 352 782 b 498 1016 383 841 458 962 l 465 1034 l 326 903 l 187 1034 l 155 1016 b 300 782 194 962 269 841 l 352 782 "},"⁵":{"x_min":55.8125,"x_max":488.640625,"ha":556,"o":"m 441 916 l 447 1070 l 423 1070 l 404 1023 l 121 1023 l 89 719 l 167 719 b 396 597 310 719 396 687 b 269 501 396 523 325 501 b 132 643 178 501 138 563 b 55 575 98 643 55 626 b 257 456 55 483 193 456 b 488 633 390 456 488 515 b 194 815 488 754 381 815 l 141 815 l 149 916 l 441 916 "},"R":{"x_min":54.4375,"x_max":906.5,"ha":939,"o":"m 183 65 l 54 30 l 54 0 l 443 0 l 443 30 l 310 65 l 310 436 l 359 436 b 481 359 420 436 453 411 l 653 55 b 779 -19 684 1 720 -19 b 906 0 835 -19 884 -6 l 906 30 b 788 90 846 30 815 43 l 651 329 b 475 450 596 426 519 441 b 760 700 681 481 760 579 b 421 930 760 872 623 930 l 54 930 l 54 900 l 183 865 l 183 65 m 310 873 b 419 884 340 879 381 884 b 627 705 551 884 627 820 b 411 484 627 573 540 484 l 310 484 l 310 873 "},"á":{"x_min":47.640625,"x_max":612.5,"ha":656,"o":"m 612 33 l 578 33 b 511 118 529 33 511 54 l 511 493 b 336 677 511 604 462 677 b 65 525 200 677 65 615 b 141 470 65 494 80 470 l 167 470 b 300 638 170 586 227 638 b 400 501 362 638 400 602 l 400 337 b 47 112 174 309 47 233 b 205 -19 47 22 121 -19 b 400 83 288 -19 360 30 l 400 58 b 488 -19 400 8 435 -19 b 612 2 529 -19 586 -8 l 612 33 m 168 140 b 400 298 168 218 261 276 l 400 141 b 253 47 363 86 306 47 b 168 140 200 47 168 81 m 250 775 b 454 986 317 820 454 944 b 357 1031 454 1012 423 1025 b 217 793 337 975 268 864 l 250 775 "},"×":{"x_min":125,"x_max":623,"ha":764,"o":"m 623 623 l 571 676 l 374 473 l 176 676 l 125 623 l 322 420 l 125 219 l 176 166 l 374 367 l 571 166 l 623 219 l 425 420 l 623 623 "},"o":{"x_min":68.0625,"x_max":696.890625,"ha":781,"o":"m 383 19 b 198 329 268 19 198 106 b 381 638 198 551 265 638 b 566 330 496 638 566 552 b 383 19 566 108 499 19 m 381 -19 b 696 334 590 -19 696 138 b 383 677 696 516 593 677 b 68 325 174 677 68 520 b 381 -19 68 143 171 -19 "},"5":{"x_min":81.859375,"x_max":667.140625,"ha":764,"o":"m 603 773 l 612 970 l 581 970 l 554 893 l 171 893 l 128 433 l 212 433 b 566 218 422 433 566 372 b 358 25 566 83 464 25 b 177 202 235 25 188 109 b 81 119 132 202 81 168 b 341 -19 81 36 196 -19 b 667 276 524 -19 667 84 b 269 547 667 476 475 547 l 183 547 l 201 773 l 603 773 "},"õ":{"x_min":67.75,"x_max":696.578125,"ha":781,"o":"m 383 19 b 198 329 267 19 198 106 b 380 638 198 551 265 638 b 565 330 496 638 565 552 b 383 19 565 108 499 19 m 380 -19 b 696 334 590 -19 696 138 b 383 677 696 516 593 677 b 67 325 173 677 67 520 b 380 -19 67 143 171 -19 m 549 1001 b 485 918 533 952 518 918 b 296 983 442 918 348 983 b 178 812 231 983 198 929 l 214 802 b 278 886 231 851 246 886 b 467 820 322 886 416 820 b 586 991 533 820 565 875 l 549 1001 "},"7":{"x_min":81.671875,"x_max":711.859375,"ha":764,"o":"m 616 770 l 151 0 l 295 0 b 711 863 401 234 547 543 l 711 893 l 151 893 l 136 941 l 104 941 l 81 662 l 115 662 l 148 770 l 616 770 "},"K":{"x_min":54.4375,"x_max":941.890625,"ha":1003,"o":"m 466 529 l 785 861 l 899 901 l 899 930 l 567 930 l 567 901 l 703 865 l 343 476 l 676 55 b 808 -19 715 6 748 -19 b 941 0 857 -19 920 -6 l 941 30 b 819 93 894 30 858 43 l 466 529 m 310 865 l 439 900 l 439 930 l 54 930 l 54 900 l 183 865 l 183 65 l 54 30 l 54 0 l 439 0 l 439 30 l 310 65 l 310 865 "},"⁰":{"x_min":42.1875,"x_max":500.890625,"ha":556,"o":"m 500 747 b 270 1037 500 920 415 1037 b 42 747 122 1037 42 908 b 270 456 42 594 112 456 b 500 747 426 456 500 588 m 393 747 b 272 501 393 588 349 501 b 149 747 196 501 149 583 b 272 993 149 866 175 993 b 393 747 333 993 393 941 "},",":{"x_min":84.109375,"x_max":255.609375,"ha":347,"o":"m 167 145 b 84 62 122 145 84 113 b 173 -19 84 4 134 -19 l 193 -19 b 84 -175 186 -75 134 -141 l 111 -211 b 255 44 195 -156 255 -52 b 167 145 255 109 217 145 "},"d":{"x_min":68.0625,"x_max":736.359375,"ha":800,"o":"m 643 1008 l 428 955 l 428 922 l 532 909 l 532 652 b 394 677 490 666 439 677 b 68 293 228 677 68 551 b 317 -19 68 105 172 -19 b 532 83 406 -19 480 28 l 532 -19 l 736 33 l 736 67 l 643 79 l 643 1008 m 378 65 b 181 348 254 65 181 176 b 385 639 181 521 273 639 b 532 582 442 639 492 615 l 532 139 b 378 65 481 87 426 65 "},"¨":{"x_min":54.4375,"x_max":490,"ha":556,"o":"m 130 818 b 206 893 171 818 206 851 b 130 968 206 934 171 968 b 54 893 88 968 54 934 b 130 818 54 851 88 818 m 413 818 b 490 893 454 818 490 851 b 413 968 490 934 454 968 b 337 893 371 968 337 934 b 413 818 337 851 371 818 "},"Ô":{"x_min":75.21875,"x_max":962.78125,"ha":1058,"o":"m 532 27 b 209 467 328 27 209 174 b 505 902 209 720 318 902 b 828 463 709 902 828 756 b 532 27 828 210 719 27 m 513 -19 b 962 463 810 -19 962 192 b 524 949 962 739 829 949 b 75 467 227 949 75 738 b 513 -19 75 191 208 -19 m 493 1227 b 342 1030 461 1178 380 1075 l 370 1008 l 519 1106 l 667 1008 l 696 1030 b 544 1227 657 1075 576 1178 l 493 1227 "},"E":{"x_min":54.4375,"x_max":748.609375,"ha":840,"o":"m 54 0 l 736 0 l 748 279 l 717 279 l 630 51 l 310 51 l 310 462 l 502 462 l 549 325 l 579 325 l 579 650 l 549 650 l 502 512 l 310 512 l 310 879 l 626 879 l 691 690 l 726 690 l 726 930 l 54 930 l 54 900 l 183 865 l 183 65 l 54 30 l 54 0 "},"Y":{"x_min":27.21875,"x_max":922.828125,"ha":969,"o":"m 417 390 l 417 65 l 279 30 l 279 0 l 683 0 l 683 30 l 544 65 l 544 406 l 815 865 l 922 901 l 922 930 l 596 930 l 596 901 l 739 865 l 510 459 l 273 865 l 417 901 l 417 930 l 27 930 l 27 900 l 127 866 l 417 390 "},"\"":{"x_min":95,"x_max":422,"ha":528,"o":"m 175 586 l 217 897 l 95 897 l 137 586 l 175 586 m 379 586 l 422 897 l 299 897 l 341 586 l 379 586 "},"‹":{"x_min":68,"x_max":382,"ha":481,"o":"m 199 342 l 382 600 l 353 628 l 68 342 l 353 56 l 382 83 l 199 342 "},"˙":{"x_min":191.921875,"x_max":352.53125,"ha":556,"o":"m 272 813 b 352 893 314 813 352 848 b 272 972 352 936 314 972 b 191 893 227 972 191 936 b 272 813 191 848 227 813 "},"ê":{"x_min":67.8125,"x_max":619.984375,"ha":703,"o":"m 345 -19 b 617 97 443 -19 547 27 l 598 129 b 398 54 531 80 469 54 b 183 350 267 54 183 163 b 184 393 183 365 183 379 l 617 393 b 619 437 618 401 619 419 b 375 677 619 593 524 677 b 67 301 191 677 67 525 b 345 -19 67 98 182 -19 m 365 638 b 493 476 451 638 493 575 b 491 434 493 462 492 450 l 188 434 b 365 638 212 576 291 638 m 353 1027 b 208 793 322 968 247 847 l 240 775 l 379 907 l 518 775 l 551 793 b 405 1027 511 847 436 968 l 353 1027 "},"Ï":{"x_min":29.9375,"x_max":465.5,"ha":504,"o":"m 310 865 l 439 900 l 439 930 l 54 930 l 54 900 l 183 865 l 183 65 l 54 30 l 54 0 l 439 0 l 439 30 l 310 65 l 310 865 m 106 1040 b 182 1115 147 1040 182 1073 b 106 1190 182 1156 147 1190 b 29 1115 63 1190 29 1156 b 106 1040 29 1073 63 1040 m 389 1040 b 465 1115 430 1040 465 1073 b 389 1190 465 1156 430 1190 b 313 1115 347 1190 313 1156 b 389 1040 313 1073 347 1040 "},"„":{"x_min":90.921875,"x_max":490.25,"ha":593,"o":"m 169 145 b 90 66 127 145 90 115 b 176 -11 90 11 138 -11 l 193 -11 b 90 -158 186 -63 139 -125 l 116 -194 b 254 48 197 -143 254 -43 b 169 145 254 111 217 145 m 405 145 b 326 66 363 145 326 115 b 412 -11 326 11 374 -11 l 429 -11 b 326 -158 422 -63 375 -125 l 352 -194 b 490 48 433 -143 490 -43 b 405 145 490 111 453 145 "},"Â":{"x_min":33.984375,"x_max":969.03125,"ha":1031,"o":"m 725 63 l 585 30 l 585 0 l 969 0 l 969 30 l 854 60 l 525 949 l 486 949 l 147 63 l 33 28 l 33 0 l 347 0 l 347 28 l 213 62 l 313 333 l 624 333 l 725 63 m 470 753 l 605 384 l 333 384 l 470 753 m 479 1227 b 329 1030 448 1178 366 1075 l 357 1008 l 505 1106 l 653 1008 l 683 1030 b 531 1227 644 1075 562 1178 l 479 1227 "},"Í":{"x_min":54.4375,"x_max":439.640625,"ha":504,"o":"m 310 864 l 439 899 l 439 930 l 54 930 l 54 899 l 183 864 l 183 64 l 54 30 l 54 0 l 439 0 l 439 30 l 310 64 l 310 864 m 168 1008 b 431 1144 261 1031 431 1101 b 355 1211 431 1169 405 1188 b 144 1035 317 1166 215 1085 l 168 1008 "},"´":{"x_min":153.8125,"x_max":390.640625,"ha":556,"o":"m 186 775 b 390 986 253 820 390 944 b 294 1031 390 1012 359 1025 b 153 793 273 975 204 864 l 186 775 "},"ì":{"x_min":38.171875,"x_max":360.75,"ha":403,"o":"m 275 793 b 134 1031 224 864 155 975 b 38 986 69 1025 38 1012 b 242 775 38 944 175 821 l 275 793 m 360 0 l 360 28 l 261 58 l 261 678 l 50 625 l 50 591 l 149 579 l 149 58 l 50 28 l 50 0 l 360 0 "},"±":{"x_min":68.0625,"x_max":680.5625,"ha":764,"o":"m 680 427 l 680 500 l 411 500 l 411 744 l 337 744 l 337 500 l 68 500 l 68 427 l 337 427 l 337 181 l 411 181 l 411 427 l 680 427 m 680 0 l 680 72 l 68 72 l 68 0 l 680 0 "},"Ú":{"x_min":40.828125,"x_max":992.25,"ha":1047,"o":"m 798 362 b 552 46 798 149 688 46 b 296 339 413 46 296 141 l 296 864 l 430 899 l 430 930 l 40 930 l 40 899 l 170 864 l 170 299 b 521 -19 170 77 351 -19 b 862 341 696 -19 862 98 l 862 867 l 992 899 l 992 930 l 661 930 l 661 899 l 798 867 l 798 362 m 461 1008 b 724 1144 553 1031 724 1101 b 647 1211 724 1169 698 1188 b 436 1035 609 1166 507 1085 l 461 1008 "},"|":{"x_min":167.421875,"x_max":240.921875,"ha":417,"o":"m 240 -326 l 240 1076 l 167 1076 l 167 -326 l 240 -326 "},"§":{"x_min":81.671875,"x_max":600.25,"ha":696,"o":"m 600 437 b 392 654 600 548 490 605 b 228 804 302 698 228 736 b 344 909 228 872 281 909 b 460 763 430 909 460 845 b 559 830 513 763 559 780 b 364 950 559 908 477 950 b 141 755 247 950 141 876 b 269 576 141 670 198 618 b 81 377 142 544 81 472 b 289 161 81 266 191 209 b 453 11 379 116 453 79 b 337 -94 453 -56 400 -94 b 221 51 251 -94 221 -30 b 122 -15 168 51 122 34 b 317 -134 122 -93 204 -134 b 540 59 434 -134 540 -61 b 412 238 540 144 481 197 b 600 437 539 269 600 341 m 176 425 b 317 548 176 480 217 529 b 504 390 409 501 504 462 b 363 265 504 333 462 284 b 176 425 270 313 176 351 "},"Ý":{"x_min":27.21875,"x_max":922.828125,"ha":969,"o":"m 417 389 l 417 64 l 279 30 l 279 0 l 683 0 l 683 30 l 544 64 l 544 406 l 815 864 l 922 901 l 922 930 l 596 930 l 596 901 l 739 864 l 510 459 l 273 864 l 417 901 l 417 930 l 27 930 l 27 899 l 127 866 l 417 389 m 406 1008 b 669 1144 499 1031 669 1101 b 593 1211 669 1169 643 1188 b 382 1035 555 1166 453 1085 l 406 1008 "},"b":{"x_min":20.421875,"x_max":695.53125,"ha":779,"o":"m 119 -19 l 149 -19 l 187 20 b 368 -19 234 0 306 -19 b 695 362 534 -19 695 104 b 446 677 695 550 590 677 b 231 573 356 677 283 629 l 231 1008 l 20 955 l 20 922 l 119 909 l 119 -19 m 385 593 b 582 306 509 593 582 479 b 378 19 582 134 490 19 b 231 76 319 19 270 43 l 231 519 b 385 593 280 569 336 593 "},"q":{"x_min":68.0625,"x_max":743.171875,"ha":772,"o":"m 419 -291 l 419 -319 l 743 -319 l 743 -291 l 643 -261 l 643 677 l 613 677 l 575 637 b 394 677 529 658 457 677 b 68 293 228 677 68 551 b 317 -19 68 105 172 -19 b 532 83 406 -19 480 27 l 532 -261 l 419 -291 m 378 65 b 181 348 254 65 181 176 b 385 638 181 520 273 638 b 532 580 443 638 491 613 l 532 138 b 378 65 481 87 426 65 "},"Ö":{"x_min":74.859375,"x_max":962.3125,"ha":1058,"o":"m 532 27 b 209 468 328 27 209 175 b 504 902 209 720 318 902 b 827 463 709 902 827 756 b 532 27 827 211 718 27 m 513 -19 b 962 463 809 -19 962 193 b 524 950 962 740 828 950 b 74 468 227 950 74 738 b 513 -19 74 191 208 -19 m 377 1040 b 453 1115 417 1040 453 1073 b 377 1190 453 1156 417 1190 b 300 1115 334 1190 300 1156 b 377 1040 300 1073 334 1040 m 660 1040 b 736 1115 700 1040 736 1073 b 660 1190 736 1156 700 1190 b 583 1115 617 1190 583 1156 b 660 1040 583 1073 617 1040 "},"ﬂ":{"x_min":54.4375,"x_max":826.203125,"ha":885,"o":"m 265 59 l 265 604 l 428 604 l 428 659 l 265 659 b 258 832 262 707 258 806 b 332 924 258 902 287 924 b 450 884 364 924 419 906 b 488 957 469 896 488 928 b 442 1009 488 993 469 1009 b 153 713 307 1009 153 897 l 153 659 l 54 659 l 54 604 l 153 604 l 153 59 l 54 28 l 54 0 l 386 0 l 386 28 l 265 59 m 826 0 l 826 28 l 726 59 l 726 1009 l 515 956 l 515 922 l 615 910 l 615 59 l 515 28 l 515 0 l 826 0 "},"z":{"x_min":54.4375,"x_max":593.4375,"ha":668,"o":"m 582 0 l 593 190 l 562 190 l 500 47 l 200 47 l 573 630 l 573 658 l 91 658 l 84 473 l 115 473 l 176 611 l 428 611 l 54 30 l 54 0 l 582 0 "},"™":{"x_min":68.0625,"x_max":1333.890625,"ha":1431,"o":"m 1259 462 l 1259 877 l 1333 904 l 1333 930 l 1148 930 l 1001 550 l 843 930 l 654 930 l 654 906 l 733 877 l 733 462 l 654 443 l 654 415 l 858 415 l 858 443 l 781 462 l 781 861 l 965 408 l 992 408 l 1173 863 l 1173 462 l 1098 441 l 1098 415 l 1333 415 l 1333 441 l 1259 462 m 68 930 l 68 776 l 98 776 l 136 888 l 277 888 l 277 462 l 191 441 l 191 415 l 449 415 l 449 441 l 363 462 l 363 888 l 502 888 l 543 776 l 573 776 l 573 930 l 68 930 "},"ã":{"x_min":48.390625,"x_max":613.25,"ha":656,"o":"m 613 33 l 579 33 b 512 118 530 33 512 54 l 512 493 b 336 677 512 604 463 677 b 66 525 200 677 66 615 b 142 470 66 494 81 470 l 168 470 b 301 638 170 586 228 638 b 400 501 362 638 400 602 l 400 337 b 48 112 174 309 48 233 b 206 -19 48 22 121 -19 b 400 83 289 -19 361 30 l 400 58 b 489 -19 400 8 436 -19 b 613 2 530 -19 587 -8 l 613 33 m 169 140 b 400 298 169 218 262 276 l 400 141 b 253 47 364 86 307 47 b 169 140 200 47 169 81 m 482 1001 b 418 918 466 952 451 918 b 229 983 375 918 281 983 b 111 812 164 983 131 929 l 147 802 b 211 886 164 851 179 886 b 400 820 255 886 349 820 b 519 991 466 820 498 875 l 482 1001 "},"æ":{"x_min":47.53125,"x_max":948.984375,"ha":1038,"o":"m 400 337 b 47 112 174 309 47 233 b 205 -19 47 22 121 -19 b 432 126 310 -19 394 58 b 673 -19 474 33 555 -19 b 946 97 771 -19 876 27 l 927 129 b 726 54 860 80 797 54 b 511 350 596 54 511 163 b 513 393 511 365 511 379 l 946 393 b 948 437 947 401 948 419 b 703 677 948 593 853 677 b 495 588 619 677 541 641 b 336 677 477 627 439 677 b 65 525 199 677 65 615 b 141 470 65 494 80 470 l 167 470 b 300 638 170 586 227 638 b 400 501 361 638 400 602 l 400 337 m 517 434 b 694 638 540 576 619 638 b 822 476 780 638 822 575 b 819 434 822 462 820 450 l 517 434 m 168 140 b 400 298 168 218 261 276 b 416 170 400 251 405 208 b 253 47 371 94 308 47 b 168 140 199 47 168 81 "},"®":{"x_min":74.859375,"x_max":1027.640625,"ha":1125,"o":"m 393 254 l 314 233 l 314 206 l 558 206 l 558 233 l 479 254 l 479 441 l 500 441 b 568 400 537 441 551 431 l 662 237 b 733 195 680 206 698 195 b 811 206 764 195 798 201 l 811 230 b 755 262 786 230 771 238 l 676 386 b 583 455 651 423 624 447 b 741 594 673 468 741 511 b 544 722 741 690 660 722 l 314 722 l 314 695 l 393 673 l 393 254 m 479 680 b 536 686 496 683 514 686 b 646 594 604 686 646 661 b 528 479 646 529 601 479 l 479 479 l 479 680 m 1027 466 b 551 950 1027 734 813 950 b 74 466 288 950 74 734 b 551 -19 74 195 288 -19 b 1027 466 813 -19 1027 195 m 978 466 b 551 29 978 223 788 29 b 123 466 317 29 123 223 b 551 902 123 706 317 902 b 978 466 788 902 978 706 "},"É":{"x_min":54.4375,"x_max":748.609375,"ha":840,"o":"m 54 0 l 736 0 l 748 278 l 717 278 l 630 51 l 310 51 l 310 462 l 502 462 l 549 324 l 579 324 l 579 649 l 549 649 l 502 512 l 310 512 l 310 878 l 626 878 l 691 689 l 726 689 l 726 930 l 54 930 l 54 899 l 183 864 l 183 64 l 54 30 l 54 0 m 304 1008 b 567 1144 397 1031 567 1101 b 491 1211 567 1169 541 1188 b 280 1035 453 1166 351 1085 l 304 1008 "},"~":{"x_min":68,"x_max":680.5,"ha":764,"o":"m 613 511 b 523 413 598 452 577 413 b 223 500 445 413 315 500 b 68 340 142 500 91 437 l 134 322 b 224 419 149 380 171 419 b 525 333 303 419 432 333 b 680 493 605 333 657 395 l 613 511 "},"³":{"x_min":37.890625,"x_max":484.328125,"ha":556,"o":"m 323 781 b 454 911 405 797 454 836 b 285 1037 454 990 386 1037 b 80 937 193 1037 125 997 l 105 913 b 250 977 144 955 197 977 b 350 893 306 977 350 951 b 145 762 350 833 288 780 l 145 730 b 390 594 312 725 390 668 b 261 501 390 531 340 501 b 114 643 182 501 118 558 b 37 577 71 643 37 615 b 257 456 37 511 129 456 b 484 625 404 456 484 529 b 323 781 484 690 454 754 "},"¡":{"x_min":108.890625,"x_max":274.9375,"ha":392,"o":"m 172 386 b 117 -211 157 247 117 -150 b 191 -291 117 -268 147 -291 b 266 -211 236 -291 266 -268 b 210 386 266 -150 225 247 l 172 386 m 108 593 b 191 508 108 547 147 508 b 274 593 236 508 274 547 b 191 677 274 638 236 677 b 108 593 147 677 108 638 "},"[":{"x_min":136.109375,"x_max":500.890625,"ha":594,"o":"m 254 -179 l 254 1059 l 500 1059 l 500 1098 l 136 1098 l 136 -218 l 500 -218 l 500 -179 l 254 -179 "},"L":{"x_min":54.4375,"x_max":748.609375,"ha":819,"o":"m 310 865 l 449 900 l 449 930 l 54 930 l 54 900 l 183 865 l 183 65 l 54 30 l 54 0 l 736 0 l 748 279 l 717 279 l 630 51 l 310 51 l 310 865 "}," ":{"x_min":0,"x_max":0,"ha":347},"∑":{"x_min":40.828125,"x_max":741.8125,"ha":833,"o":"m 40 -161 l 729 -161 l 741 111 l 710 111 l 662 -52 l 145 -52 l 470 452 l 216 879 l 619 879 l 684 690 l 720 690 l 720 930 l 49 930 l 49 895 l 367 380 l 40 -129 l 40 -161 "},"%":{"x_min":54.4375,"x_max":1009.953125,"ha":1086,"o":"m 242 -19 l 876 878 l 822 917 l 187 19 l 242 -19 m 1009 205 b 803 421 1009 317 932 421 b 586 197 669 421 586 329 b 792 -19 586 86 662 -19 b 1009 205 925 -19 1009 67 m 913 203 b 800 15 913 74 869 15 b 683 199 735 15 683 60 b 796 386 683 336 730 386 b 913 203 864 386 913 340 m 54 692 b 261 476 54 580 132 476 b 477 700 394 476 477 568 b 272 917 477 811 401 917 b 54 692 138 917 54 830 m 151 694 b 264 882 151 823 194 882 b 381 698 329 882 381 837 b 268 511 381 561 333 511 b 151 694 200 511 151 557 "},"P":{"x_min":54.4375,"x_max":755.421875,"ha":819,"o":"m 183 65 l 54 30 l 54 0 l 453 0 l 453 30 l 310 65 l 310 873 b 416 883 340 879 378 883 b 622 691 544 883 622 819 b 383 454 622 558 551 466 l 383 415 l 426 415 b 755 686 624 415 755 531 b 419 930 755 875 588 930 l 54 930 l 54 900 l 183 865 l 183 65 "},"∏":{"x_min":54.4375,"x_max":959.578125,"ha":1035,"o":"m 54 930 l 54 900 l 183 861 l 183 -95 l 54 -130 l 54 -161 l 443 -161 l 443 -130 l 310 -95 l 310 879 l 703 879 l 703 -95 l 570 -130 l 570 -161 l 959 -161 l 959 -130 l 830 -95 l 830 861 l 959 900 l 959 930 l 54 930 "},"À":{"x_min":33.984375,"x_max":969.03125,"ha":1031,"o":"m 725 63 l 584 30 l 584 0 l 969 0 l 969 30 l 854 61 l 525 949 l 485 949 l 146 63 l 33 29 l 33 0 l 346 0 l 346 29 l 213 62 l 312 333 l 624 333 l 725 63 m 469 754 l 605 384 l 331 384 l 469 754 m 593 1036 b 382 1211 522 1086 420 1166 b 306 1144 331 1188 306 1169 b 568 1008 306 1101 476 1031 l 593 1036 "},"_":{"x_min":-6.8125,"x_max":755.421875,"ha":764,"o":"m 755 -148 l -6 -148 l -6 -220 l 755 -220 l 755 -148 "},"ñ":{"x_min":50.359375,"x_max":771.75,"ha":818,"o":"m 360 0 l 360 28 l 261 58 l 261 521 b 421 596 307 568 366 596 b 560 441 504 596 560 547 l 560 58 l 461 28 l 461 0 l 771 0 l 771 28 l 672 58 l 672 468 b 484 678 672 603 597 678 b 261 573 400 678 311 626 l 261 678 l 50 625 l 50 591 l 149 579 l 149 58 l 50 28 l 50 0 l 360 0 m 567 1001 b 503 918 551 953 536 918 b 314 983 460 918 366 983 b 196 812 249 983 216 929 l 232 803 b 296 886 249 851 264 886 b 485 821 340 886 434 821 b 604 991 551 821 583 875 l 567 1001 "},"+":{"x_min":68.0625,"x_max":680.5625,"ha":764,"o":"m 680 386 l 680 458 l 411 458 l 411 730 l 337 730 l 337 458 l 68 458 l 68 386 l 337 386 l 337 112 l 411 112 l 411 386 l 680 386 "},"‚":{"x_min":90.921875,"x_max":254.25,"ha":353,"o":"m 169 145 b 90 66 127 145 90 115 b 176 -11 90 11 138 -11 l 193 -11 b 90 -158 186 -63 139 -125 l 116 -194 b 254 48 197 -143 254 -43 b 169 145 254 111 217 145 "},"½":{"x_min":69.453125,"x_max":1294.46875,"ha":1389,"o":"m 332 410 l 332 917 l 304 917 l 69 854 l 69 819 l 230 829 l 230 410 l 80 386 l 80 353 l 480 353 l 480 386 l 332 410 m 375 -19 l 1010 878 l 955 917 l 321 19 l 375 -19 m 1234 96 l 984 96 b 1260 404 1185 204 1260 305 b 1054 569 1260 511 1182 569 b 853 442 941 569 853 517 b 940 394 853 399 901 394 b 1044 525 941 464 973 525 b 1150 404 1110 525 1150 487 b 833 26 1150 272 1011 154 l 833 0 l 1284 0 l 1294 179 l 1267 179 l 1234 96 "},"Æ":{"x_min":20.421875,"x_max":1233.171875,"ha":1335,"o":"m 20 29 l 20 0 l 340 0 l 340 29 l 208 62 l 367 333 l 668 333 l 668 65 l 539 30 l 539 0 l 1220 0 l 1233 279 l 1201 279 l 1114 51 l 794 51 l 794 462 l 986 462 l 1034 325 l 1064 325 l 1064 650 l 1034 650 l 986 512 l 794 512 l 794 879 l 1110 879 l 1176 690 l 1211 690 l 1211 930 l 484 930 l 484 900 l 613 865 l 130 66 l 20 29 m 398 384 l 668 841 l 668 384 l 398 384 "},"Ë":{"x_min":54.4375,"x_max":748.609375,"ha":840,"o":"m 54 0 l 736 0 l 748 279 l 717 279 l 630 51 l 310 51 l 310 462 l 502 462 l 549 325 l 579 325 l 579 650 l 549 650 l 502 512 l 310 512 l 310 879 l 626 879 l 691 690 l 726 690 l 726 930 l 54 930 l 54 900 l 183 865 l 183 65 l 54 30 l 54 0 m 269 1040 b 345 1115 310 1040 345 1073 b 269 1190 345 1156 310 1190 b 193 1115 227 1190 193 1156 b 269 1040 193 1073 227 1040 m 552 1040 b 628 1115 593 1040 628 1073 b 552 1190 628 1156 593 1190 b 476 1115 510 1190 476 1156 b 552 1040 476 1073 510 1040 "},"'":{"x_min":95,"x_max":218,"ha":319,"o":"m 175 586 l 218 897 l 95 897 l 137 586 l 175 586 "},"Š":{"x_min":68.390625,"x_max":648.328125,"ha":724,"o":"m 648 256 b 194 752 648 558 194 520 b 352 905 194 848 265 905 b 550 696 475 905 532 814 l 596 696 l 600 905 b 365 949 540 926 444 949 b 83 692 205 949 83 856 b 535 199 83 414 535 438 b 339 27 535 92 446 27 b 116 273 190 27 148 133 l 68 273 l 80 38 b 324 -19 155 5 242 -19 b 648 256 519 -19 648 99 m 382 1017 b 534 1214 414 1066 495 1169 l 505 1237 l 357 1138 l 208 1237 l 180 1214 b 331 1017 218 1169 299 1066 l 382 1017 "},"ª":{"x_min":54.4375,"x_max":481.828125,"ha":547,"o":"m 481 508 l 457 508 b 411 566 423 508 411 522 l 411 819 b 273 950 411 898 366 950 b 66 838 172 950 66 902 b 155 788 66 804 92 788 b 249 908 155 870 196 908 b 318 812 291 908 318 884 l 318 722 b 54 554 157 702 54 651 b 181 455 54 481 121 455 b 318 530 240 455 291 491 l 318 512 b 382 456 318 477 345 456 b 481 473 411 456 464 465 l 481 508 m 155 568 b 318 680 155 623 220 663 l 318 580 b 213 513 292 541 251 513 b 155 568 176 513 155 527 "},"Œ":{"x_min":74.859375,"x_max":1166.46875,"ha":1267,"o":"m 601 883 l 601 47 l 532 47 b 209 468 328 47 209 175 b 504 883 209 720 318 883 l 601 883 m 1154 0 l 1166 279 l 1135 279 l 1048 51 l 728 51 l 728 462 l 920 462 l 967 325 l 997 325 l 997 650 l 967 650 l 920 512 l 728 512 l 728 879 l 1043 879 l 1109 690 l 1144 690 l 1144 930 l 524 930 b 74 468 227 930 74 738 b 513 0 74 191 208 0 l 1154 0 "},"˛":{"x_min":152.4375,"x_max":392,"ha":556,"o":"m 326 0 b 152 -226 230 -55 152 -136 b 269 -326 152 -291 200 -326 b 392 -277 325 -326 368 -301 l 379 -243 b 304 -277 362 -259 332 -277 b 249 -208 266 -277 249 -248 b 379 0 249 -145 291 -58 l 326 0 "},"ð":{"x_min":61.25,"x_max":683.28125,"ha":767,"o":"m 232 735 l 409 813 b 514 622 455 756 491 692 b 372 654 469 641 417 654 b 61 318 164 654 61 483 b 360 -19 61 109 182 -19 b 683 395 548 -19 683 134 b 495 851 683 603 598 750 l 592 893 l 592 955 l 449 893 b 210 1020 366 959 276 999 l 194 981 b 370 858 264 948 321 906 l 232 798 l 232 735 m 555 365 b 366 19 555 144 479 19 b 187 308 259 19 187 122 b 400 595 187 469 266 595 b 530 569 441 595 488 587 b 555 365 547 504 555 434 "},"T":{"x_min":54.4375,"x_max":837.078125,"ha":910,"o":"m 736 879 l 801 690 l 837 690 l 837 930 l 54 930 l 54 690 l 89 690 l 155 879 l 382 879 l 382 65 l 243 30 l 243 0 l 647 0 l 647 30 l 509 65 l 509 879 l 736 879 "},"š":{"x_min":48.3125,"x_max":516.53125,"ha":585,"o":"m 516 175 b 325 382 516 282 423 333 b 165 529 236 426 165 461 b 278 637 165 601 215 637 b 394 491 364 637 394 573 b 493 558 447 491 493 508 b 298 678 493 636 411 678 b 75 483 181 678 75 604 b 266 271 75 372 162 323 b 415 128 366 219 415 189 b 278 19 415 62 354 19 b 140 182 192 19 143 73 b 48 103 87 178 48 144 b 274 -19 48 21 164 -19 b 516 175 404 -19 516 51 m 312 782 b 458 1016 343 841 418 962 l 425 1034 l 286 903 l 147 1034 l 115 1016 b 260 782 154 962 229 841 l 312 782 "},"⁷":{"x_min":54.4375,"x_max":518.578125,"ha":556,"o":"m 434 918 l 104 468 l 240 468 l 518 994 l 518 1023 l 107 1023 l 95 1052 l 72 1052 l 54 850 l 80 850 l 104 918 l 434 918 "},"Þ":{"x_min":54.4375,"x_max":748.609375,"ha":819,"o":"m 310 722 l 310 865 l 439 900 l 439 930 l 54 930 l 54 900 l 183 865 l 183 65 l 54 30 l 54 0 l 453 0 l 453 30 l 310 65 l 310 665 b 416 675 340 670 378 675 b 615 491 536 675 615 619 b 383 268 615 354 539 280 l 383 229 l 426 229 b 748 488 604 229 748 326 b 419 722 748 669 612 722 l 310 722 "},"j":{"x_min":-44.921875,"x_max":285.828125,"ha":378,"o":"m 49 591 l 148 579 l 148 -151 b 98 -249 148 -210 145 -249 b -5 -205 65 -249 25 -228 b -44 -278 -24 -219 -44 -249 b 5 -326 -44 -315 -21 -326 b 259 -26 126 -326 259 -210 l 259 678 l 49 625 l 49 591 m 205 821 b 285 900 247 821 285 855 b 205 979 285 943 247 979 b 125 900 160 979 125 943 b 205 821 125 855 160 821 "},"1":{"x_min":123.859375,"x_max":680.5625,"ha":764,"o":"m 473 70 l 473 905 l 436 905 l 123 806 l 123 775 l 347 788 l 347 70 l 137 30 l 137 0 l 680 0 l 680 30 l 473 70 "},"›":{"x_min":88,"x_max":402,"ha":481,"o":"m 88 83 l 116 56 l 402 342 l 116 628 l 88 600 l 270 342 l 88 83 "},"ı":{"x_min":50.359375,"x_max":360.6875,"ha":403,"o":"m 360 0 l 360 28 l 261 58 l 261 678 l 50 625 l 50 591 l 149 579 l 149 58 l 50 28 l 50 0 l 360 0 "},"ä":{"x_min":47.640625,"x_max":612.5,"ha":656,"o":"m 612 33 l 578 33 b 511 118 529 33 511 54 l 511 493 b 336 677 511 604 462 677 b 65 525 200 677 65 615 b 141 470 65 494 80 470 l 167 470 b 300 638 170 586 227 638 b 400 501 362 638 400 602 l 400 337 b 47 112 174 309 47 233 b 205 -19 47 22 121 -19 b 400 83 288 -19 360 30 l 400 58 b 488 -19 400 8 435 -19 b 612 2 529 -19 586 -8 l 612 33 m 168 140 b 400 298 168 218 261 276 l 400 141 b 253 47 363 86 306 47 b 168 140 200 47 168 81 m 179 818 b 255 893 220 818 255 851 b 179 968 255 934 220 968 b 103 893 137 968 103 934 b 179 818 103 851 137 818 m 462 818 b 539 893 503 818 539 851 b 462 968 539 934 503 968 b 386 893 420 968 386 934 b 462 818 386 851 420 818 "},"<":{"x_min":102.015625,"x_max":637,"ha":764,"o":"m 102 388 l 600 118 l 637 186 l 195 423 l 637 660 l 600 729 l 102 458 l 102 388 "},"£":{"x_min":68.859375,"x_max":678.5,"ha":764,"o":"m 87 426 l 241 426 b 267 305 255 386 267 345 b 68 29 267 202 155 101 l 68 0 l 666 0 l 678 261 l 647 261 l 600 108 l 217 108 b 374 379 285 169 374 263 b 369 426 374 394 372 409 l 580 426 l 580 475 l 358 475 b 300 705 336 551 300 629 b 438 872 300 806 358 872 b 564 712 516 872 562 812 b 674 790 630 713 674 736 b 455 916 674 872 553 916 b 185 634 294 916 185 806 b 222 475 185 579 203 526 l 87 475 l 87 426 "},"¹":{"x_min":84.390625,"x_max":495.4375,"ha":556,"o":"m 347 525 l 347 1031 l 319 1031 l 84 969 l 84 934 l 245 944 l 245 525 l 95 501 l 95 468 l 495 468 l 495 501 l 347 525 "},"t":{"x_min":40.828125,"x_max":428.75,"ha":486,"o":"m 268 -19 b 428 40 325 -19 393 9 l 416 77 b 315 43 387 58 344 43 b 235 152 266 43 235 69 l 235 604 l 423 604 l 423 658 l 235 658 l 235 819 l 181 819 l 125 658 l 40 658 l 40 604 l 123 604 l 123 130 b 268 -19 123 16 186 -19 "},"¬":{"x_min":61.25,"x_max":673.75,"ha":764,"o":"m 673 590 l 61 590 l 61 518 l 600 518 l 600 254 l 673 254 l 673 590 "},"ù":{"x_min":20.921875,"x_max":723.25,"ha":779,"o":"m 519 579 l 519 137 b 366 62 476 94 419 62 b 231 217 286 62 231 111 l 231 678 l 20 625 l 20 591 l 120 579 l 120 190 b 302 -19 120 55 189 -19 b 519 85 381 -19 468 32 l 519 -19 l 723 33 l 723 67 l 630 79 l 630 678 l 419 625 l 419 591 l 519 579 m 417 793 b 276 1031 366 864 297 975 b 180 986 211 1025 180 1012 b 384 775 180 944 317 821 l 417 793 "},"W":{"x_min":40.984375,"x_max":1466.03125,"ha":1531,"o":"m 1041 188 l 816 865 l 962 900 l 962 930 l 571 930 l 571 900 l 687 865 l 718 773 l 524 191 l 285 865 l 431 900 l 431 930 l 40 930 l 40 900 l 156 865 l 471 -12 l 510 -12 l 752 673 l 988 -12 l 1027 -12 l 1350 862 l 1466 901 l 1466 930 l 1144 930 l 1144 901 l 1279 865 l 1041 188 "},"ï":{"x_min":-20.421875,"x_max":415.140625,"ha":403,"o":"m 55 818 b 132 893 96 818 132 851 b 55 968 132 934 96 968 b -20 893 13 968 -20 934 b 55 818 -20 851 13 818 m 338 818 b 415 893 379 818 415 851 b 338 968 415 934 379 968 b 262 893 296 968 262 934 b 338 818 262 851 296 818 m 360 0 l 360 28 l 261 58 l 261 678 l 50 625 l 50 591 l 149 579 l 149 58 l 50 28 l 50 0 l 360 0 "},">":{"x_min":112,"x_max":646.984375,"ha":764,"o":"m 646 454 l 148 725 l 112 656 l 553 419 l 112 181 l 148 113 l 646 384 l 646 454 "},"v":{"x_min":20.125,"x_max":734.921875,"ha":771,"o":"m 232 597 l 334 630 l 334 658 l 20 658 l 20 630 l 108 597 l 352 0 l 394 0 l 642 593 l 734 630 l 734 658 l 481 658 l 481 630 l 587 594 l 409 151 l 232 597 "},"û":{"x_min":20.671875,"x_max":723,"ha":779,"o":"m 518 579 l 518 137 b 366 62 476 94 419 62 b 231 217 286 62 231 111 l 231 678 l 20 625 l 20 591 l 120 579 l 120 190 b 302 -19 120 55 189 -19 b 518 85 381 -19 468 32 l 518 -19 l 723 33 l 723 67 l 630 79 l 630 678 l 419 625 l 419 591 l 518 579 m 329 1027 b 184 793 298 968 223 847 l 216 775 l 355 907 l 494 775 l 527 793 b 381 1027 487 847 412 968 l 329 1027 "},"Ò":{"x_min":74.359375,"x_max":961.8125,"ha":1058,"o":"m 531 27 b 209 467 327 27 209 174 b 504 902 209 720 318 902 b 827 463 708 902 827 756 b 531 27 827 211 718 27 m 512 -19 b 961 463 809 -19 961 192 b 523 949 961 740 828 949 b 74 467 226 949 74 738 b 512 -19 74 191 207 -19 m 661 1036 b 450 1211 590 1086 488 1166 b 373 1144 399 1188 373 1169 b 636 1008 373 1101 543 1031 l 661 1036 "},"&":{"x_min":54.828125,"x_max":944.828125,"ha":1006,"o":"m 944 474 l 944 501 l 668 501 l 668 474 l 763 433 l 634 235 l 441 503 b 627 746 561 562 627 646 b 418 917 627 860 525 917 b 196 721 284 917 196 829 b 280 518 196 649 238 579 b 54 228 143 462 54 351 b 335 -18 54 72 182 -18 b 585 94 423 -18 516 18 b 778 -18 646 14 701 -18 b 917 7 816 -18 869 -9 l 917 37 l 856 37 b 664 192 782 37 740 87 l 834 432 l 944 474 m 370 42 b 175 256 260 42 175 121 b 305 485 175 349 219 437 l 556 135 b 370 42 502 74 437 42 m 303 764 b 412 875 303 832 352 875 b 520 739 486 875 520 811 b 416 536 520 654 476 579 l 375 593 b 303 764 331 654 303 712 "},"˝":{"x_min":80.3125,"x_max":464.140625,"ha":556,"o":"m 107 769 b 268 987 166 821 268 938 b 191 1030 268 1012 235 1030 l 178 1030 b 80 787 171 987 110 838 l 107 769 m 303 769 b 464 987 362 821 464 938 b 387 1030 464 1012 431 1030 l 374 1030 b 276 787 367 987 306 838 l 303 769 "},"Ð":{"x_min":54.4375,"x_max":962.3125,"ha":1058,"o":"m 61 0 l 458 0 b 962 488 777 0 962 195 b 475 930 962 752 793 930 l 61 930 l 61 900 l 190 865 l 190 512 l 54 512 l 54 451 l 190 451 l 190 65 l 61 30 l 61 0 m 827 477 b 455 50 827 176 673 50 l 317 50 l 317 451 l 499 451 l 499 512 l 317 512 l 317 880 l 458 880 b 827 477 733 880 827 695 "},"I":{"x_min":54.4375,"x_max":439.640625,"ha":504,"o":"m 310 865 l 439 900 l 439 930 l 54 930 l 54 900 l 183 865 l 183 65 l 54 30 l 54 0 l 439 0 l 439 30 l 310 65 l 310 865 "},"G":{"x_min":74.859375,"x_max":973.203125,"ha":1042,"o":"m 724 76 b 552 27 683 47 620 27 b 209 468 329 27 209 200 b 519 904 209 733 330 904 b 798 677 657 904 755 833 l 845 677 l 837 890 b 528 950 779 912 631 950 b 74 454 265 950 74 777 b 545 -19 74 169 258 -19 b 850 61 660 -19 775 22 l 850 348 l 973 383 l 973 413 l 590 413 l 590 383 l 724 348 l 724 76 "},"`":{"x_min":154.171875,"x_max":391,"ha":556,"o":"m 391 793 b 250 1031 340 864 271 975 b 154 986 185 1025 154 1012 b 358 775 154 944 291 821 l 391 793 "},"·":{"x_min":87.109375,"x_max":253.171875,"ha":347,"o":"m 87 422 b 170 337 87 376 125 337 b 253 422 215 337 253 376 b 170 506 253 468 215 506 b 87 422 125 506 87 468 "},"r":{"x_min":50.359375,"x_max":532.1875,"ha":578,"o":"m 382 0 l 382 28 l 261 58 l 261 471 b 401 562 308 532 352 562 b 507 537 431 562 469 551 b 532 614 514 550 532 583 b 469 678 532 658 502 678 b 261 529 408 678 317 601 l 261 678 l 50 625 l 50 591 l 149 579 l 149 58 l 50 28 l 50 0 l 382 0 "},"¿":{"x_min":54.4375,"x_max":506.328125,"ha":551,"o":"m 506 -137 b 430 -83 506 -95 476 -83 l 404 -83 b 277 -254 401 -183 359 -254 b 155 -127 205 -254 155 -202 b 439 269 155 55 439 86 b 284 394 439 354 364 394 b 164 359 242 394 190 376 l 175 322 b 265 347 198 334 235 347 b 333 286 306 347 333 322 b 54 -95 333 170 54 118 b 283 -291 54 -206 145 -291 b 506 -137 402 -291 504 -227 m 377 593 b 294 677 377 638 338 677 b 210 593 249 677 210 638 b 294 508 210 547 249 508 b 377 593 338 508 377 547 "},"ý":{"x_min":20.203125,"x_max":734.90625,"ha":771,"o":"m 334 630 l 334 658 l 20 658 l 20 630 l 108 597 l 356 8 b 188 -230 282 -162 248 -230 b 74 -197 139 -230 92 -206 b 36 -275 56 -213 36 -245 b 122 -326 36 -315 82 -326 b 357 -101 229 -326 303 -236 l 642 593 l 734 630 l 734 658 l 481 658 l 481 630 l 586 593 l 413 152 l 232 597 l 334 630 m 360 775 b 564 986 427 820 564 944 b 468 1031 564 1012 533 1025 b 327 793 447 975 378 864 l 360 775 "},"x":{"x_min":34,"x_max":720,"ha":769,"o":"m 359 630 l 359 658 l 55 658 l 55 630 l 138 600 l 326 318 l 132 65 l 34 27 l 34 0 l 277 0 l 277 27 l 191 62 l 352 277 l 499 58 l 417 27 l 417 0 l 720 0 l 720 27 l 628 58 l 426 362 l 598 593 l 692 630 l 692 658 l 454 658 l 454 630 l 538 595 l 400 401 l 268 600 l 359 630 "},"è":{"x_min":67.890625,"x_max":620.984375,"ha":703,"o":"m 345 -19 b 618 97 443 -19 548 28 l 599 129 b 398 54 532 81 469 54 b 183 350 267 54 183 164 b 184 393 183 365 183 379 l 618 393 b 620 437 619 401 620 419 b 375 678 620 593 525 678 b 67 301 191 678 67 525 b 345 -19 67 99 182 -19 m 366 639 b 494 476 451 639 494 575 b 491 435 494 462 492 450 l 189 435 b 366 639 212 576 291 639 m 449 793 b 308 1031 398 864 329 975 b 212 986 243 1025 212 1012 b 416 775 212 944 349 821 l 449 793 "},"º":{"x_min":61.25,"x_max":533.5625,"ha":607,"o":"m 299 498 b 167 704 217 498 167 552 b 296 908 167 847 215 908 b 427 705 378 908 427 859 b 299 498 427 555 379 498 m 296 456 b 533 706 445 456 533 568 b 299 950 533 836 446 950 b 61 701 149 950 61 838 b 296 456 61 572 148 456 "},"Ø":{"x_min":75.0625,"x_max":962.9375,"ha":1058,"o":"m 513 -19 b 962 463 810 -19 962 193 b 828 841 962 619 919 754 l 926 977 l 851 977 l 780 880 b 524 950 715 925 629 950 b 75 468 227 950 75 738 b 210 88 75 311 117 176 l 111 -47 l 186 -47 l 256 50 b 513 -19 323 5 407 -19 m 532 27 b 308 120 438 27 362 58 l 766 756 b 828 463 806 684 828 587 b 532 27 828 211 719 27 m 210 468 b 505 902 210 720 318 902 b 729 809 599 902 675 870 l 271 173 b 210 468 230 245 210 343 "},"∞":{"x_min":68.0625,"x_max":996.328125,"ha":1086,"o":"m 778 170 b 996 433 899 170 996 272 b 782 695 996 594 902 695 b 532 511 658 695 583 611 b 285 695 485 605 406 695 b 68 433 164 695 68 594 b 281 170 68 272 161 170 b 532 354 404 170 479 254 b 778 170 577 261 657 170 m 775 618 b 922 433 867 618 922 537 b 775 248 922 329 862 248 b 570 434 684 248 612 340 b 775 618 615 526 680 618 m 288 248 b 141 433 197 248 141 329 b 288 618 141 537 201 618 b 494 431 379 618 450 526 b 288 248 447 338 383 248 "},"÷":{"x_min":68.0625,"x_max":680.5625,"ha":764,"o":"m 680 386 l 680 458 l 68 458 l 68 386 l 680 386 m 299 644 b 374 568 299 602 333 568 b 449 644 415 568 449 602 b 374 720 449 686 415 720 b 299 644 333 720 299 686 m 299 200 b 374 123 299 158 333 123 b 449 200 415 123 449 158 b 374 276 449 241 415 276 b 299 200 333 276 299 241 "},"h":{"x_min":40.828125,"x_max":762.21875,"ha":808,"o":"m 351 0 l 351 27 l 251 58 l 251 520 b 412 595 298 568 356 595 b 551 438 495 595 551 544 l 551 58 l 451 27 l 451 0 l 762 0 l 762 27 l 662 58 l 662 465 b 475 677 662 600 588 677 b 251 573 390 677 302 626 l 251 1008 l 40 955 l 40 922 l 140 909 l 140 58 l 40 27 l 40 0 l 351 0 "},".":{"x_min":87.109375,"x_max":253.171875,"ha":347,"o":"m 87 65 b 170 -19 87 19 125 -19 b 253 65 215 -19 253 19 b 170 150 253 111 215 150 b 87 65 125 150 87 111 "},";":{"x_min":84.28125,"x_max":255.53125,"ha":347,"o":"m 87 495 b 169 411 87 450 125 411 b 252 495 214 411 252 450 b 169 580 252 541 214 580 b 87 495 125 580 87 541 m 167 145 b 84 62 122 145 84 113 b 173 -19 84 4 134 -19 l 197 -19 b 89 -180 190 -75 141 -145 l 111 -211 b 255 44 195 -156 255 -52 b 167 145 255 109 217 145 "},"f":{"x_min":54.4375,"x_max":488.640625,"ha":485,"o":"m 265 58 l 265 604 l 428 604 l 428 658 l 265 658 b 258 831 262 706 258 805 b 332 923 258 901 287 923 b 450 883 364 923 419 905 b 488 956 469 895 488 927 b 442 1008 488 993 469 1008 b 153 712 307 1008 153 897 l 153 658 l 54 658 l 54 604 l 153 604 l 153 58 l 54 27 l 54 0 l 386 0 l 386 27 l 265 58 "},"“":{"x_min":83.75,"x_max":483.078125,"ha":593,"o":"m 404 609 b 483 688 446 609 483 640 b 397 766 483 744 435 766 l 381 766 b 483 913 387 819 434 880 l 457 950 b 319 706 376 898 319 798 b 404 609 319 644 356 609 m 168 609 b 247 688 210 609 247 640 b 161 766 247 744 199 766 l 145 766 b 247 913 151 819 198 880 l 221 950 b 83 706 140 898 83 798 b 168 609 83 644 120 609 "},"A":{"x_min":33.984375,"x_max":969.03125,"ha":1031,"o":"m 725 63 l 585 30 l 585 0 l 969 0 l 969 30 l 854 61 l 525 950 l 485 950 l 146 63 l 33 29 l 33 0 l 347 0 l 347 29 l 213 62 l 313 333 l 624 333 l 725 63 m 469 754 l 605 384 l 332 384 l 469 754 "},"6":{"x_min":74.46875,"x_max":686.96875,"ha":764,"o":"m 282 494 b 373 513 311 504 342 513 b 559 267 493 513 559 400 b 397 28 559 126 492 28 b 206 340 282 28 206 163 b 606 894 206 624 367 803 l 595 938 b 74 331 301 857 74 629 b 372 -18 74 97 205 -18 b 686 310 553 -18 686 117 b 431 572 686 465 588 572 b 274 528 369 572 311 553 l 282 494 "},"‘":{"x_min":83.75,"x_max":247.078125,"ha":353,"o":"m 168 609 b 247 688 210 609 247 640 b 161 766 247 744 199 766 l 145 766 b 247 913 151 819 198 880 l 221 950 b 83 706 140 898 83 798 b 168 609 83 644 120 609 "},"π":{"x_min":31.0625,"x_max":744.28125,"ha":786,"o":"m 574 519 b 744 728 678 519 717 602 l 712 741 b 580 642 688 664 647 642 b 201 673 503 642 263 673 b 31 463 96 673 56 589 l 62 451 b 193 549 86 527 127 549 b 243 546 206 549 225 548 b 164 71 209 417 164 170 b 206 -19 164 12 172 -19 b 266 5 225 -19 247 -8 b 224 132 239 32 224 74 b 285 544 224 223 255 426 l 470 524 b 440 199 455 413 440 271 b 549 -19 440 56 478 -19 b 646 74 597 -19 636 24 b 495 227 548 87 495 130 b 515 521 495 303 500 409 b 574 519 536 520 557 519 "},"O":{"x_min":74.859375,"x_max":962.3125,"ha":1058,"o":"m 532 27 b 209 468 328 27 209 175 b 504 902 209 720 318 902 b 827 463 709 902 827 756 b 532 27 827 211 718 27 m 513 -19 b 962 463 809 -19 962 193 b 524 950 962 740 828 950 b 74 468 227 950 74 738 b 513 -19 74 191 208 -19 "},"n":{"x_min":50.359375,"x_max":771.75,"ha":818,"o":"m 360 0 l 360 28 l 261 58 l 261 521 b 421 596 307 568 366 596 b 560 441 504 596 560 547 l 560 58 l 461 28 l 461 0 l 771 0 l 771 28 l 672 58 l 672 468 b 484 678 672 603 597 678 b 261 573 400 678 311 626 l 261 678 l 50 625 l 50 591 l 149 579 l 149 58 l 50 28 l 50 0 l 360 0 "},"3":{"x_min":56.78125,"x_max":662.484375,"ha":764,"o":"m 412 497 b 625 731 531 534 625 613 b 397 916 625 840 538 916 b 115 762 273 916 177 850 l 147 738 b 343 831 195 793 263 831 b 499 691 435 831 499 775 b 205 463 499 584 401 497 l 205 426 b 553 198 432 416 553 327 b 358 26 553 90 474 26 b 156 226 250 26 158 95 b 56 136 97 225 56 188 b 356 -19 56 61 183 -19 b 662 252 559 -19 662 111 b 412 497 662 358 587 466 "},"9":{"x_min":63.03125,"x_max":675.53125,"ha":764,"o":"m 467 402 b 376 384 438 393 407 384 b 190 630 256 384 190 497 b 352 869 190 770 257 869 b 543 556 467 869 543 734 b 143 2 543 273 382 94 l 154 -40 b 675 566 448 40 675 268 b 377 916 675 800 544 916 b 63 587 196 916 63 780 b 318 325 63 431 161 325 b 475 369 380 325 438 344 l 467 402 "},"l":{"x_min":40.828125,"x_max":351.171875,"ha":400,"o":"m 351 0 l 351 27 l 251 58 l 251 1008 l 40 955 l 40 922 l 140 909 l 140 58 l 40 27 l 40 0 l 351 0 "},"¤":{"x_min":83.84375,"x_max":664.515625,"ha":764,"o":"m 372 173 b 520 220 431 173 481 190 l 612 124 l 664 177 l 569 274 b 610 423 595 316 610 368 b 567 566 610 476 595 526 l 664 665 l 612 718 l 517 620 b 375 666 480 649 431 666 b 229 620 316 666 267 649 l 135 718 l 83 665 l 179 568 b 136 418 150 526 136 473 b 177 273 136 365 150 315 l 83 177 l 135 124 l 228 219 b 372 173 266 190 314 173 m 375 215 b 243 420 293 215 243 269 b 372 624 243 563 290 624 b 503 422 454 624 503 576 b 375 215 503 272 456 215 "},"∂":{"x_min":68.0625,"x_max":665.578125,"ha":749,"o":"m 357 951 b 543 562 481 951 543 783 b 537 454 543 526 540 488 b 347 509 484 486 412 509 b 68 230 197 509 68 405 b 322 -19 68 102 151 -19 b 665 505 547 -19 665 244 b 313 1008 665 762 533 1008 b 133 901 202 1008 133 958 b 175 829 133 870 157 840 b 357 951 213 881 274 951 m 328 23 b 194 226 247 23 194 105 b 377 450 194 383 280 450 b 533 401 424 450 479 433 b 328 23 507 195 434 23 "},"4":{"x_min":43.5625,"x_max":699.609375,"ha":764,"o":"m 699 272 l 699 350 l 547 350 l 547 905 l 488 905 l 43 298 l 43 272 l 423 272 l 423 68 l 266 30 l 266 0 l 690 0 l 690 30 l 547 68 l 547 272 l 699 272 m 423 731 l 423 350 l 141 350 l 423 731 "},"p":{"x_min":34.03125,"x_max":709.140625,"ha":793,"o":"m 357 -318 l 357 -291 l 245 -260 l 245 4 b 382 -18 287 -7 336 -18 b 709 362 548 -18 709 104 b 460 678 709 550 604 678 b 245 573 370 678 296 629 l 245 678 l 34 625 l 34 591 l 133 579 l 133 -260 l 34 -291 l 34 -318 l 357 -318 m 398 593 b 596 307 522 593 596 479 b 392 19 596 135 503 19 b 245 76 333 19 284 43 l 245 519 b 398 593 294 569 349 593 "},"‡":{"x_min":58.53125,"x_max":622.03125,"ha":694,"o":"m 377 573 l 622 556 l 622 654 l 371 637 l 387 930 l 292 930 l 308 637 l 58 654 l 58 556 l 303 573 l 303 240 l 58 256 l 58 159 l 308 176 l 292 -116 l 387 -116 l 371 176 l 622 159 l 622 256 l 377 240 l 377 573 "}," ":{"x_min":0,"x_max":0,"ha":69},"à":{"x_min":47.546875,"x_max":612.40625,"ha":656,"o":"m 612 33 l 578 33 b 511 118 529 33 511 54 l 511 493 b 336 678 511 604 462 678 b 65 525 200 678 65 615 b 141 471 65 494 80 471 l 167 471 b 300 639 170 586 227 639 b 400 501 361 639 400 603 l 400 337 b 47 112 174 310 47 233 b 205 -19 47 22 121 -19 b 400 83 288 -19 360 31 l 400 58 b 488 -19 400 8 435 -19 b 612 3 529 -19 586 -7 l 612 33 m 168 140 b 400 299 168 218 261 276 l 400 142 b 253 47 363 86 306 47 b 168 140 200 47 168 82 m 424 793 b 284 1031 374 864 304 975 b 187 986 219 1025 187 1012 b 391 775 187 944 325 821 l 424 793 "},"Ü":{"x_min":40.828125,"x_max":992.25,"ha":1047,"o":"m 798 362 b 552 47 798 150 688 47 b 296 340 413 47 296 141 l 296 865 l 430 900 l 430 930 l 40 930 l 40 900 l 170 865 l 170 300 b 521 -19 170 77 351 -19 b 862 341 696 -19 862 98 l 862 868 l 992 900 l 992 930 l 661 930 l 661 900 l 798 868 l 798 362 m 406 1040 b 483 1115 447 1040 483 1073 b 406 1190 483 1156 447 1190 b 330 1115 364 1190 330 1156 b 406 1040 330 1073 364 1040 m 690 1040 b 766 1115 730 1040 766 1073 b 690 1190 766 1156 730 1190 b 613 1115 647 1190 613 1156 b 690 1040 613 1073 647 1040 "},"ó":{"x_min":68.0625,"x_max":696.890625,"ha":781,"o":"m 383 19 b 198 329 268 19 198 106 b 381 638 198 551 265 638 b 566 330 496 638 566 552 b 383 19 566 108 499 19 m 381 -19 b 696 334 590 -19 696 138 b 383 677 696 516 593 677 b 68 325 174 677 68 520 b 381 -19 68 143 171 -19 m 308 775 b 513 986 375 820 513 944 b 416 1031 513 1012 481 1025 b 276 793 396 975 326 864 l 308 775 "},"√":{"x_min":13.9375,"x_max":719,"ha":764,"o":"m 314 0 l 356 0 l 719 1063 l 656 1063 l 366 177 l 214 586 l 13 586 l 15 558 l 107 527 l 314 0 "},"⁴":{"x_min":27.21875,"x_max":511.78125,"ha":556,"o":"m 511 631 l 511 690 l 405 690 l 405 1031 l 362 1031 l 27 658 l 27 631 l 303 631 l 303 525 l 190 506 l 190 468 l 506 468 l 506 506 l 405 525 l 405 631 l 511 631 m 303 897 l 303 690 l 119 690 l 303 897 "}}}
